<svg width="126" height="27" viewBox="0 0 126 27" fill="none" xmlns="http://www.w3.org/2000/svg">
<path d="M2.46239 21V0.480107H12.5758C14.7059 0.480107 16.3377 0.919819 17.4712 1.79924C18.6047 2.65913 19.1714 3.77306 19.1714 5.14105C19.1714 6.45042 18.6829 7.48618 17.7057 8.24835C16.7286 8.99098 15.4583 9.3916 13.8949 9.45023V10.9746C15.6733 11.0137 17.1097 11.4241 18.2041 12.2058C19.2985 12.9679 19.8457 14.1014 19.8457 15.6062C19.8457 17.2478 19.1714 18.5572 17.823 19.5343C16.4745 20.5114 14.6375 21 12.3119 21H2.46239ZM6.91814 8.60012H11.6084C13.6799 8.60012 14.7157 7.8575 14.7157 6.37225C14.7157 5.59054 14.4519 5.03357 13.9242 4.70134C13.4161 4.34957 12.6442 4.17369 11.6084 4.17369H6.91814V8.60012ZM6.91814 17.3064H11.667C14.0512 17.3064 15.2433 16.4563 15.2433 14.7561C15.2433 13.0363 14.0512 12.1764 11.667 12.1764H6.91814V17.3064ZM46.9255 21V0.480107H53.785L62.9017 15.7235L64.2208 14.8147C63.4196 13.4663 62.9017 12.4305 62.6672 11.7074C62.4522 10.9648 62.335 9.802 62.3154 8.21904V0.480107H66.7712V21H61.4067L50.7657 3.17701L49.4172 4.02712C50.1403 5.37557 50.6484 6.52859 50.9415 7.48618C51.2347 8.44378 51.3813 9.68474 51.3813 11.2091V21H46.9255ZM71.1896 21V0.480107H80.3942C82.6026 0.480107 84.3907 1.08593 85.7587 2.29758C87.1267 3.48969 87.8107 5.0922 87.8107 7.1051C87.8107 9.118 87.1267 10.7401 85.7587 11.9712C84.3907 13.1829 82.6123 13.7887 80.4235 13.7887H75.6453V21H71.1896ZM75.6453 10.0951H79.6028C80.6776 10.0951 81.5375 9.83132 82.1824 9.30366C82.8469 8.75646 83.1791 8.02361 83.1791 7.1051C83.1791 6.22568 82.8469 5.52214 82.1824 4.99448C81.5179 4.44729 80.6581 4.17369 79.6028 4.17369H75.6453V10.0951ZM101.568 21L99.9259 16.1925H91.6007L89.9005 21H85.1223L92.9492 0.480107H98.724L106.492 21H101.568ZM92.8905 12.4989H98.6654L97.1411 8.04315C96.7893 7.06602 96.6036 5.37557 96.5841 2.97181H95.0011C94.9621 4.49614 94.9132 5.52214 94.8546 6.04979C94.7959 6.71425 94.6591 7.38847 94.4442 8.07247L92.8905 12.4989ZM109.42 21V12.6455L101.975 0.480107H107.134L109.45 4.46683C109.88 5.18991 110.202 5.88368 110.417 6.54813C110.73 7.40801 110.896 8.75646 110.916 10.5935H112.498C112.538 9.20595 112.645 8.11155 112.821 7.3103C112.997 6.50905 113.397 5.54168 114.023 4.4082L116.163 0.480107H121.175L113.876 12.6455V21H109.42Z" fill="white"/>
<path d="M21.8024 10.7987C21.8024 7.67184 22.7991 5.0922 24.7924 3.05975C26.8053 1.0273 29.4631 0.0110818 32.7659 0.0110818C36.0686 0.0110818 38.7166 1.0273 40.71 3.05975C42.7229 5.0922 43.7294 7.67184 43.7294 10.7987C43.7684 13.906 42.7815 16.4661 40.7686 18.479C38.7557 20.4919 36.0881 21.4886 32.7659 21.469C29.4436 21.4886 26.776 20.4919 24.7631 18.479C22.7502 16.4661 21.7633 13.906 21.8024 10.7987ZM39.0684 10.7694C39.0684 8.67829 38.5017 6.97807 37.3682 5.66871C36.2347 4.35934 34.7104 3.70466 32.7952 3.70466C30.8409 3.70466 29.297 4.35934 28.1636 5.66871C27.0301 6.97807 26.4633 8.67829 26.4633 10.7694C26.4633 12.8409 27.0301 14.5313 28.1636 15.8407C29.297 17.1305 30.8409 17.7754 32.7952 17.7754C34.7104 17.7754 36.2347 17.1305 37.3682 15.8407C38.5017 14.5313 39.0684 12.8409 39.0684 10.7694Z" fill="#3D3080"/>
<path d="M100.27 22.7202H100.992V23.3607H100.27V22.7202ZM100.973 23.6857V26.0754H100.294V24.2019H99.3622V26.0754H98.6835V24.2019H98.2199V23.6857H98.6835V23.3559C98.6835 23.1647 98.7361 23.0134 98.8413 22.9019C98.9464 22.7872 99.093 22.7298 99.281 22.7298H100.017V23.2699H99.5725C99.4992 23.2699 99.4451 23.2874 99.41 23.3225C99.3781 23.3543 99.3622 23.4069 99.3622 23.4802V23.6857H100.973ZM101.542 26.0754V23.6857H102.154C102.151 23.8291 102.073 24.0123 101.92 24.2353H102.216C102.28 24.0442 102.374 23.8928 102.498 23.7813C102.623 23.6698 102.772 23.614 102.948 23.614C103.206 23.614 103.405 23.6937 103.545 23.853C103.688 24.0091 103.76 24.2226 103.76 24.4934V26.0754H103.081V24.6225C103.081 24.323 102.954 24.1732 102.699 24.1732C102.556 24.1732 102.449 24.2162 102.379 24.3023C102.274 24.4297 102.221 24.6432 102.221 24.9427V26.0754H101.542ZM104.174 25.4637C104.178 25.3075 104.216 25.1721 104.289 25.0574C104.362 24.9427 104.468 24.8503 104.605 24.7802C104.745 24.7101 104.899 24.6559 105.068 24.6177C105.24 24.5763 105.443 24.5444 105.675 24.5221V24.4313C105.675 24.2114 105.544 24.1015 105.283 24.1015C104.993 24.1015 104.818 24.2274 104.757 24.4791L104.146 24.3453C104.165 24.1445 104.276 23.9725 104.48 23.8291C104.687 23.6857 104.953 23.614 105.278 23.614C105.623 23.614 105.885 23.6921 106.067 23.8482C106.252 24.0043 106.344 24.2353 106.344 24.5412V25.4159C106.344 25.4796 106.352 25.5194 106.368 25.5354C106.384 25.5513 106.424 25.5593 106.488 25.5593H106.698V26.0754H106.416C106.212 26.0754 106.075 26.0404 106.005 25.9703C105.938 25.897 105.901 25.7664 105.895 25.5784H105.67C105.549 25.9607 105.306 26.1519 104.939 26.1519C104.719 26.1519 104.536 26.0882 104.389 25.9607C104.246 25.8333 104.174 25.6676 104.174 25.4637ZM105.675 25.0956V24.9427C105.401 24.9778 105.197 25.0271 105.063 25.0909C104.93 25.1546 104.863 25.2566 104.863 25.3968C104.863 25.5688 104.966 25.6548 105.173 25.6548C105.317 25.6548 105.436 25.6071 105.532 25.5115C105.627 25.4159 105.675 25.2773 105.675 25.0956ZM106.976 26.0754V23.6857H107.588C107.585 23.8291 107.507 24.0123 107.354 24.2353H107.65C107.714 24.0442 107.808 23.8928 107.932 23.7813C108.056 23.6698 108.206 23.614 108.381 23.614C108.639 23.614 108.839 23.6937 108.979 23.853C109.122 24.0091 109.194 24.2226 109.194 24.4934V26.0754H108.515V24.6225C108.515 24.323 108.388 24.1732 108.133 24.1732C107.989 24.1732 107.883 24.2162 107.813 24.3023C107.707 24.4297 107.655 24.6432 107.655 24.9427V26.0754H106.976ZM109.584 24.8758C109.584 24.503 109.707 24.2003 109.952 23.9677C110.198 23.7319 110.504 23.614 110.87 23.614C111.144 23.614 111.381 23.6793 111.582 23.81C111.783 23.9406 111.925 24.1143 112.007 24.3309L111.381 24.5651C111.283 24.2879 111.104 24.1493 110.846 24.1493C110.677 24.1493 110.539 24.213 110.43 24.3405C110.322 24.4679 110.268 24.6464 110.268 24.8758C110.268 25.1052 110.322 25.2852 110.43 25.4159C110.542 25.5465 110.682 25.6118 110.851 25.6118C111.112 25.6118 111.297 25.4605 111.405 25.1578L112.046 25.3872C111.953 25.6198 111.802 25.8062 111.592 25.9464C111.381 26.0834 111.139 26.1519 110.865 26.1519C110.492 26.1519 110.185 26.034 109.943 25.7982C109.704 25.5624 109.584 25.255 109.584 24.8758ZM112.234 24.8758C112.234 24.5094 112.348 24.2083 112.578 23.9725C112.807 23.7335 113.095 23.614 113.443 23.614C113.803 23.614 114.086 23.7319 114.294 23.9677C114.501 24.2035 114.604 24.5078 114.604 24.8806C114.604 24.9539 114.603 25.008 114.599 25.0431H112.912C112.922 25.2374 112.974 25.3856 113.07 25.4876C113.166 25.5863 113.291 25.6357 113.448 25.6357C113.696 25.6357 113.881 25.4971 114.002 25.2199L114.609 25.4541C114.526 25.6453 114.392 25.811 114.207 25.9512C114.026 26.085 113.773 26.1519 113.448 26.1519C113.081 26.1519 112.786 26.0372 112.563 25.8078C112.344 25.5752 112.234 25.2645 112.234 24.8758ZM112.936 24.5651H113.93C113.895 24.2561 113.733 24.1015 113.443 24.1015C113.306 24.1015 113.193 24.1413 113.103 24.221C113.014 24.3007 112.958 24.4154 112.936 24.5651Z" fill="white"/>
<circle cx="32.9815" cy="10.0552" r="3.50495" fill="white"/>
</svg>
