<svg width="99" height="28" viewBox="0 0 99 28" fill="none" xmlns="http://www.w3.org/2000/svg">
<path d="M1.016 18.5V1.7H9.296C11.04 1.7 12.376 2.06 13.304 2.78C14.232 3.484 14.696 4.396 14.696 5.516C14.696 6.588 14.296 7.436 13.496 8.06C12.696 8.668 11.656 8.996 10.376 9.044V10.292C11.832 10.324 13.008 10.66 13.904 11.3C14.8 11.924 15.248 12.852 15.248 14.084C15.248 15.428 14.696 16.5 13.592 17.3C12.488 18.1 10.984 18.5 9.08 18.5H1.016ZM4.664 8.348H8.504C10.2 8.348 11.048 7.74 11.048 6.524C11.048 5.884 10.832 5.428 10.4 5.156C9.984 4.868 9.352 4.724 8.504 4.724H4.664V8.348ZM4.664 15.476H8.552C10.504 15.476 11.48 14.78 11.48 13.388C11.48 11.98 10.504 11.276 8.552 11.276H4.664V15.476ZM37.4187 18.5V1.7H43.0347L50.4987 14.18L51.5787 13.436C50.9227 12.332 50.4987 11.484 50.3067 10.892C50.1307 10.284 50.0347 9.332 50.0187 8.036V1.7H53.6667V18.5H49.2747L40.5627 3.908L39.4587 4.604C40.0507 5.708 40.4667 6.652 40.7067 7.436C40.9467 8.22 41.0667 9.236 41.0667 10.484V18.5H37.4187ZM57.2842 18.5V1.7H64.8202C66.6282 1.7 68.0922 2.196 69.2122 3.188C70.3322 4.164 70.8922 5.476 70.8922 7.124C70.8922 8.772 70.3322 10.1 69.2122 11.108C68.0922 12.1 66.6362 12.596 64.8442 12.596H60.9322V18.5H57.2842ZM60.9322 9.572H64.1722C65.0522 9.572 65.7562 9.356 66.2842 8.924C66.8282 8.476 67.1002 7.876 67.1002 7.124C67.1002 6.404 66.8282 5.828 66.2842 5.396C65.7402 4.948 65.0362 4.724 64.1722 4.724H60.9322V9.572ZM82.1551 18.5L80.8111 14.564H73.9951L72.6031 18.5H68.6911L75.0991 1.7H79.8271L86.1871 18.5H82.1551ZM75.0511 11.54H79.7791L78.5311 7.892C78.2431 7.092 78.0911 5.708 78.0751 3.74H76.7791C76.7471 4.988 76.7071 5.828 76.6591 6.26C76.6111 6.804 76.4991 7.356 76.3231 7.916L75.0511 11.54ZM88.5845 18.5V11.66L82.4885 1.7H86.7125L88.6085 4.964C88.9605 5.556 89.2245 6.124 89.4005 6.668C89.6565 7.372 89.7925 8.476 89.8085 9.98H91.1045C91.1365 8.844 91.2245 7.948 91.3685 7.292C91.5125 6.636 91.8405 5.844 92.3525 4.916L94.1045 1.7H98.2085L92.2325 11.66V18.5H88.5845Z" fill="black"/>
<path d="M16.85 10.148C16.85 7.588 17.666 5.476 19.298 3.812C20.946 2.148 23.122 1.316 25.826 1.316C28.53 1.316 30.698 2.148 32.33 3.812C33.978 5.476 34.802 7.588 34.802 10.148C34.834 12.692 34.026 14.788 32.378 16.436C30.73 18.084 28.546 18.9 25.826 18.884C23.106 18.9 20.922 18.084 19.274 16.436C17.626 14.788 16.818 12.692 16.85 10.148ZM30.986 10.124C30.986 8.412 30.522 7.02 29.594 5.948C28.666 4.876 27.418 4.34 25.85 4.34C24.25 4.34 22.986 4.876 22.058 5.948C21.13 7.02 20.666 8.412 20.666 10.124C20.666 11.82 21.13 13.204 22.058 14.276C22.986 15.332 24.25 15.86 25.85 15.86C27.418 15.86 28.666 15.332 29.594 14.276C30.522 13.204 30.986 11.82 30.986 10.124Z" fill="#7B61FF"/>
<path d="M69.568 21.884H70.776V22.956H69.568V21.884ZM70.744 23.5V27.5H69.608V24.364H68.048V27.5H66.912V24.364H66.136V23.5H66.912V22.948C66.912 22.628 67 22.3747 67.176 22.188C67.352 21.996 67.5973 21.9 67.912 21.9H69.144V22.804H68.4C68.2773 22.804 68.1867 22.8333 68.128 22.892C68.0747 22.9453 68.048 23.0333 68.048 23.156V23.5H70.744ZM71.6972 27.5V23.5H72.7212C72.7159 23.74 72.5852 24.0467 72.3292 24.42H72.8252C72.9319 24.1 73.0892 23.8467 73.2973 23.66C73.5053 23.4733 73.7559 23.38 74.0492 23.38C74.4813 23.38 74.8146 23.5133 75.0493 23.78C75.2893 24.0413 75.4093 24.3987 75.4093 24.852V27.5H74.2733V25.068C74.2733 24.5667 74.0599 24.316 73.6332 24.316C73.3932 24.316 73.2146 24.388 73.0972 24.532C72.9212 24.7453 72.8332 25.1027 72.8332 25.604V27.5H71.6972ZM76.1027 26.476C76.108 26.2147 76.172 25.988 76.2947 25.796C76.4174 25.604 76.5934 25.4493 76.8227 25.332C77.0574 25.2147 77.316 25.124 77.5987 25.06C77.8867 24.9907 78.2254 24.9373 78.6147 24.9V24.748C78.6147 24.38 78.396 24.196 77.9587 24.196C77.4734 24.196 77.18 24.4067 77.0787 24.828L76.0547 24.604C76.0867 24.268 76.2734 23.98 76.6147 23.74C76.9614 23.5 77.4067 23.38 77.9507 23.38C78.5267 23.38 78.9667 23.5107 79.2707 23.772C79.58 24.0333 79.7347 24.42 79.7347 24.932V26.396C79.7347 26.5027 79.748 26.5693 79.7747 26.596C79.8014 26.6227 79.868 26.636 79.9747 26.636H80.3267V27.5H79.8547C79.5134 27.5 79.284 27.4413 79.1667 27.324C79.0547 27.2013 78.9934 26.9827 78.9827 26.668H78.6067C78.404 27.308 77.996 27.628 77.3827 27.628C77.0147 27.628 76.708 27.5213 76.4627 27.308C76.2227 27.0947 76.1027 26.8173 76.1027 26.476ZM78.6147 25.86V25.604C78.156 25.6627 77.8147 25.7453 77.5907 25.852C77.3667 25.9587 77.2547 26.1293 77.2547 26.364C77.2547 26.652 77.428 26.796 77.7747 26.796C78.0147 26.796 78.2147 26.716 78.3747 26.556C78.5347 26.396 78.6147 26.164 78.6147 25.86ZM80.7924 27.5V23.5H81.8164C81.8111 23.74 81.6804 24.0467 81.4244 24.42H81.9204C82.0271 24.1 82.1844 23.8467 82.3924 23.66C82.6004 23.4733 82.8511 23.38 83.1444 23.38C83.5764 23.38 83.9098 23.5133 84.1444 23.78C84.3844 24.0413 84.5044 24.3987 84.5044 24.852V27.5H83.3684V25.068C83.3684 24.5667 83.1551 24.316 82.7284 24.316C82.4884 24.316 82.3098 24.388 82.1924 24.532C82.0164 24.7453 81.9284 25.1027 81.9284 25.604V27.5H80.7924ZM85.1579 25.492C85.1579 24.868 85.3632 24.3613 85.7739 23.972C86.1845 23.5773 86.6965 23.38 87.3099 23.38C87.7685 23.38 88.1659 23.4893 88.5019 23.708C88.8379 23.9267 89.0752 24.2173 89.2139 24.58L88.1659 24.972C88.0005 24.508 87.7019 24.276 87.2699 24.276C86.9872 24.276 86.7552 24.3827 86.5739 24.596C86.3925 24.8093 86.3019 25.108 86.3019 25.492C86.3019 25.876 86.3925 26.1773 86.5739 26.396C86.7605 26.6147 86.9952 26.724 87.2779 26.724C87.7152 26.724 88.0245 26.4707 88.2059 25.964L89.2779 26.348C89.1232 26.7373 88.8699 27.0493 88.5179 27.284C88.1659 27.5133 87.7605 27.628 87.3019 27.628C86.6779 27.628 86.1632 27.4307 85.7579 27.036C85.3579 26.6413 85.1579 26.1267 85.1579 25.492ZM89.5924 25.492C89.5924 24.8787 89.7844 24.3747 90.1684 23.98C90.5524 23.58 91.035 23.38 91.6164 23.38C92.219 23.38 92.6937 23.5773 93.0404 23.972C93.387 24.3667 93.5604 24.876 93.5604 25.5C93.5604 25.6227 93.5577 25.7133 93.5524 25.772H90.7284C90.7444 26.0973 90.8324 26.3453 90.9924 26.516C91.1524 26.6813 91.363 26.764 91.6244 26.764C92.0404 26.764 92.3497 26.532 92.5524 26.068L93.5684 26.46C93.4297 26.78 93.2057 27.0573 92.8964 27.292C92.5924 27.516 92.1684 27.628 91.6244 27.628C91.011 27.628 90.5177 27.436 90.1444 27.052C89.7764 26.6627 89.5924 26.1427 89.5924 25.492ZM90.7684 24.972H92.4324C92.3737 24.4547 92.1017 24.196 91.6164 24.196C91.387 24.196 91.1977 24.2627 91.0484 24.396C90.899 24.5293 90.8057 24.7213 90.7684 24.972Z" fill="black"/>
<circle cx="26.1" cy="9.6" r="2.1" fill="black"/>
</svg>
