<svg width="1240" height="305" viewBox="0 0 1240 305" fill="none" xmlns="http://www.w3.org/2000/svg">
<path d="M-44.9175 353.375C1.35239 334.229 42.3462 307.421 75.508 274.625C124.383 225.688 121.724 195.707 168.667 167.751C214.293 140.601 276.914 133.12 327.72 143.376C397.044 157.382 400.18 195.501 489.045 255.875C541.305 291.35 639.304 357.95 754.889 351.5C813.284 348.238 871.339 326.6 925.303 306.5C991.446 281.863 1000.94 269.207 1036.64 263.375C1079.04 256.438 1144.59 261.369 1238.86 323.375" stroke="#5241AA" stroke-width="0.5" stroke-miterlimit="10"/>
<path d="M-46.2124 346.362C-4.51886 329.542 33.0678 306.534 64.6699 278.488C67.6919 275.769 70.7139 272.975 73.7586 270.106C123.133 222.707 121.179 194.075 167.531 166.813C187.736 154.883 210.614 146.387 234.833 141.819C252.182 138.56 269.974 137.199 287.752 137.769C301.047 138.202 314.241 139.869 327.084 142.738C341.395 145.774 354.999 150.74 367.347 157.438C390.069 169.813 405.974 186.519 430.445 207.482C448.879 223.258 468.934 237.687 490.385 250.606C501.746 257.544 515.016 265.906 530.353 274.475C571.388 297.462 623.899 322.437 686.906 331.062C708.286 334.073 730.009 335.079 751.663 334.062C754.98 333.912 758.275 333.687 761.524 333.425C793.698 330.856 824.35 324.05 855.661 315.012C879.087 308.337 901.241 300.012 923.213 292.194C932.415 288.856 940.64 285.819 948.07 282.969C992.946 265.7 1004.6 256.438 1035.25 252.388C1058.54 249.313 1088.67 249.856 1126.91 260.806C1158.27 269.769 1195.4 285.913 1238.86 312.612" stroke="#5241AA" stroke-width="0.5" stroke-miterlimit="10"/>
<path d="M-47.4165 339.312C-6.15478 323.128 31.2005 300.892 62.8296 273.688C65.8592 271.063 68.8887 268.375 71.9183 265.625C121.906 219.744 120.702 192.501 166.418 165.876C186.671 153.79 209.622 145.13 233.947 140.394C251.398 137.114 269.307 135.802 287.185 136.495C300.499 137.055 313.683 138.943 326.448 142.119C340.688 145.516 354.218 150.681 366.574 157.438C390.205 170.188 406.974 186.351 431.172 205.925C449.692 220.783 469.979 234.062 491.726 245.563C503.087 251.713 516.061 259.25 531.239 266.713C571.684 286.606 620.99 307.475 683.362 314.281C704.91 316.731 726.687 317.535 748.414 316.681C751.777 316.531 755.094 316.344 758.366 316.1C791.086 313.738 820.965 307.906 852.912 299.863C876.974 293.788 898.923 285.613 921.077 277.906C930.279 274.719 938.595 271.813 946.207 269.094C991.219 252.95 1003.28 244.438 1033.82 241.438C1057.09 239.15 1086.99 240.407 1125.44 251.488C1156.84 260.563 1194.44 276.406 1238.86 301.813" stroke="#5241AA" stroke-width="0.5" stroke-miterlimit="10"/>
<path d="M-48.8481 332.376C-7.9238 316.804 29.2791 295.294 60.989 268.87C64.011 266.32 67.0557 263.732 70.0777 261.089C120.725 216.745 120.157 190.852 165.259 164.939C186.618 152.677 207.658 143.845 232.993 138.952C250.56 135.645 268.602 134.382 286.594 135.202C299.934 135.894 313.109 138.012 325.789 141.502C339.965 145.256 353.44 150.62 365.825 157.439C390.319 170.564 407.928 186.145 431.877 204.314C450.5 218.26 471.036 230.361 493.067 240.37C504.541 245.733 517.129 252.445 532.125 258.801C572.184 275.789 618.082 292.42 679.817 297.445C701.535 299.327 723.389 299.922 745.21 299.226C748.596 299.095 752.027 298.926 755.208 298.701C787.311 296.531 819.086 291.816 850.094 284.62C874.793 279.164 896.56 271.064 918.986 263.564C928.189 260.489 936.573 257.733 944.389 255.145C989.515 240.145 1002.01 232.42 1032.41 230.414C1055.68 228.876 1085.42 230.901 1124.01 242.114C1155.47 251.189 1193.49 266.92 1238.86 291.126" stroke="#5241AA" stroke-width="0.5" stroke-miterlimit="10"/>
<path d="M-50.1665 325.381C-9.63767 310.414 27.369 289.658 59.148 264.069C62.17 261.594 65.2375 259.119 68.2367 256.569C119.429 213.688 119.656 189.313 164.123 163.981C185.958 151.588 206.294 142.513 232.084 137.507C249.752 134.167 267.914 132.961 286.002 133.925C299.403 134.727 312.603 137.069 325.22 140.882C339.301 144.964 352.706 150.488 365.12 157.325C390.477 170.844 409.041 185.788 432.649 202.719C449.304 214.644 469.004 225.069 494.475 235.194C506.04 239.806 518.355 245.712 533.102 250.944C573.001 265.1 615.264 277.381 676.249 280.625C698.106 281.955 720.031 282.349 741.938 281.806C745.369 281.694 748.754 281.544 752.003 281.356C784.165 279.616 816.09 275.627 847.435 269.431C872.815 264.594 894.265 256.55 916.918 249.312C926.007 246.35 934.618 243.687 942.616 241.269C987.833 227.319 1000.76 220.475 1031.07 219.481C1054.34 218.713 1083.88 221.469 1122.62 232.794C1154.09 242 1192.56 257.45 1238.86 280.419" stroke="#5241AA" stroke-width="0.5" stroke-miterlimit="10"/>
<path d="M-51.4609 318.388C-11.3369 304.016 25.4644 284.014 57.3083 259.269C60.3302 256.888 63.3977 254.525 66.397 252.088C118.203 210.838 119.134 187.682 162.942 163.063C185.255 150.52 204.886 141.201 231.107 136.082C248.893 132.714 267.19 131.564 285.39 132.67C298.794 133.588 311.957 136.147 324.448 140.263C338.446 144.691 351.792 150.408 364.234 157.307C390.478 171.182 410.019 185.432 433.24 201.126C450.395 212.676 470.527 221.751 495.702 230.038C507.404 233.901 519.447 238.963 533.875 243.163C573.933 254.6 612.311 262.419 672.66 263.919C693.632 264.444 716.831 265.1 738.666 264.482C742.143 264.388 745.483 264.257 748.8 264.107C780.971 262.798 812.981 259.539 844.573 254.357C870.589 250.138 891.879 242.15 914.783 235.063C923.985 232.213 932.551 229.757 940.754 227.432C986.061 214.438 999.49 208.063 1029.6 208.457C1052.86 208.757 1082.22 211.963 1121.1 223.457C1152.59 232.832 1191.53 247.963 1238.77 269.675" stroke="#5241AA" stroke-width="0.5" stroke-miterlimit="10"/>
<path d="M-52.7788 311.412C-13.0521 297.622 23.5499 278.367 55.4678 254.469C58.4898 252.181 61.5799 249.912 64.5565 247.587C116.998 207.838 118.634 186.106 161.783 162.125C184.505 149.469 203.477 139.888 230.176 134.638C248.045 131.262 266.436 130.168 284.708 131.394C298.156 132.44 311.321 135.224 323.721 139.644C337.604 144.435 350.884 150.338 363.371 157.269C390.478 171.538 411.086 185.169 433.808 199.55C451.486 210.8 472.072 218.412 496.907 224.881C508.79 227.994 521.719 229.794 534.625 235.212C576.501 236.656 609.448 250.212 668.956 247.025C689.974 245.881 713.536 247.475 735.281 247.025C738.803 246.931 742.211 246.837 745.483 246.706C780.52 245.337 807.332 243.744 841.687 239.206C868.34 235.625 889.403 227.675 912.556 220.812C921.645 218.075 930.393 215.75 938.8 213.556C984.13 201.706 998.036 196.681 1028.1 197.619C1051.39 198.388 1080.56 202.625 1119.57 214.212C1151.11 223.587 1190.47 238.587 1238.68 259.044" stroke="#5241AA" stroke-width="0.5" stroke-miterlimit="10"/>
<path d="M-54.0967 304.419C-14.7719 291.211 21.629 272.717 53.6273 249.688C56.672 247.476 59.7622 245.32 62.716 243.107C115.908 204.895 118.225 184.551 160.715 161.189C184.005 148.401 202.182 138.576 229.312 133.195C247.336 129.777 265.905 128.745 284.322 130.139C299.295 131.17 311.588 134.883 323.267 139.045C337.046 144.191 350.279 150.281 362.825 157.251C390.796 171.895 412.563 184.814 434.763 197.976C452.94 208.795 474.071 215.039 498.384 219.745C510.517 222.089 523.15 222.632 535.67 227.357C577.546 224.695 606.63 232.138 665.548 230.245C686.679 229.551 710.514 229.963 732.191 229.57C735.735 229.57 739.189 229.438 742.438 229.345C778.066 228.238 804.105 227.676 839.074 223.907C866.34 220.945 887.199 213.051 910.602 206.395C919.691 203.77 928.507 201.595 937.119 199.532C982.562 188.695 996.9 184.532 1026.85 186.539C1050.14 188.057 1079.11 193.026 1118.28 204.745C1149.84 214.12 1189.65 228.97 1238.82 248.17" stroke="#5241AA" stroke-width="0.5" stroke-miterlimit="10"/>
<path d="M-55.3926 297.444C-16.4879 284.796 19.7 267.07 51.7861 244.944C54.8308 242.807 57.9437 240.744 61.0112 238.663C114.748 201.988 117.816 183.051 159.578 160.326C183.345 147.407 200.818 137.319 228.403 131.845C246.513 128.388 265.187 127.4 283.685 128.919C298.863 130.063 310.951 134.076 322.562 138.482C336.899 143.919 348.692 150.294 361.984 157.232C390.841 172.232 416.948 181.251 435.421 196.4C456.348 203.769 475.911 217.832 499.746 214.588C512.152 212.9 524.513 215.488 536.601 219.5C578.5 212.75 603.88 217.007 662.048 213.444C683.27 212.15 707.492 212.45 728.986 212.169C732.599 212.169 736.053 212.169 739.325 212C775.498 211.157 800.787 211.682 836.347 208.719C864.317 206.413 884.903 198.557 908.534 192.107C917.623 189.594 926.53 187.551 935.323 185.638C980.766 175.794 995.672 172.626 1025.51 175.569C1048.82 177.876 1077.61 183.576 1116.89 195.426C1148.5 204.913 1188.65 219.5 1238.86 237.444" stroke="#5241AA" stroke-width="0.5" stroke-miterlimit="10"/>
<path d="M-56.71 290.469C-18.2028 278.357 17.7811 261.365 49.9461 240.107C52.9908 238.063 56.1037 236.188 59.1939 234.144C113.726 199.007 117.293 181.476 158.443 159.37C182.71 146.339 199.455 135.989 227.471 130.382C245.696 126.91 264.497 125.979 283.094 127.626C298.477 128.882 310.36 133.251 321.926 137.845C335.991 143.47 347.647 150.145 361.212 157.213C390.932 172.626 418.403 180.576 436.194 194.845C457.848 201.407 478.638 214.57 501.155 209.451C513.471 206.657 525.899 208.326 537.51 211.645C579.432 200.807 601.131 201.838 658.526 196.645C679.839 194.77 704.243 194.92 725.783 194.77H736.167C772.931 194.207 797.516 195.763 833.621 193.645C862.25 191.976 882.586 184.138 906.467 177.913C915.555 175.513 924.53 173.62 933.528 171.857C978.972 162.97 994.423 160.776 1024.14 164.695C1047.46 167.788 1076.06 174.22 1115.48 186.182C1147.11 195.763 1187.81 210.107 1238.89 226.813" stroke="#5241AA" stroke-width="0.5" stroke-miterlimit="10"/>
<path d="M-58.0278 283.513C-19.9644 271.915 15.7796 255.679 48.0148 235.344C51.0822 233.469 54.1951 231.594 57.2852 229.719C112.408 196.138 116.748 180.013 157.261 158.469C182.028 145.344 198.16 134.713 226.517 128.995C244.844 125.478 263.768 124.596 282.458 126.388C298.068 127.757 309.724 132.37 321.222 137.263C335.014 143.188 346.556 150.032 360.394 157.213C391 173.001 419.811 179.919 436.785 193.288C459.188 199.063 479.956 201.126 502.382 204.332C515.243 202.307 527.104 201.201 538.328 203.807C580.25 188.807 598.223 186.669 654.891 179.901C676.295 177.332 701.016 177.201 722.466 177.407C726.147 177.407 729.668 177.407 732.918 177.407C770.272 177.801 794.039 179.751 830.78 178.438C860.092 177.407 880.155 169.607 904.308 163.588C913.397 161.319 922.486 159.538 931.574 157.963C977.018 150.032 992.923 148.851 1022.6 153.744C1045.93 157.607 1074.34 164.769 1113.94 176.863C1145.59 186.519 1186.65 200.638 1238.75 216.107" stroke="#5241AA" stroke-width="0.5" stroke-miterlimit="10"/>
<path d="M-59.3228 276.538C-21.6348 265.461 13.9315 249.979 46.2881 230.563C49.3328 228.688 52.4684 226.944 55.5586 225.182C111.409 193.175 116.385 178.438 156.171 157.551C181.437 144.276 196.729 133.401 225.631 127.551C244.115 123.992 263.218 123.173 282.049 125.132C297.955 126.613 309.429 131.507 320.676 136.644C334.31 142.813 345.67 149.882 359.735 157.269C391.182 173.432 421.379 179.319 437.58 191.788C460.711 196.757 481.797 197.413 503.814 199.288C516.834 196.288 528.513 194.15 539.328 196.063C581.25 177.032 595.519 171.557 651.438 163.213C672.932 160.007 697.949 159.782 719.33 160.101C723.057 160.101 726.578 160.101 729.85 160.101C767.75 160.794 790.79 163.851 828.122 163.307C858.069 162.913 877.906 155.132 902.309 149.338C911.398 147.163 920.486 145.588 929.916 144.069C975.359 137.057 991.901 136.907 1021.37 142.776C1044.71 147.426 1072.93 155.301 1112.67 167.526C1144.34 177.257 1185.94 191.15 1238.91 205.363" stroke="#5241AA" stroke-width="0.5" stroke-miterlimit="10"/>
<path d="M-60.6406 269.581C-23.3574 258.998 11.9989 244.262 44.4476 225.781C47.5151 223.906 50.6507 222.368 53.7408 220.699C110.341 190.287 115.953 176.937 155.035 156.631C180.801 143.262 195.366 132.125 224.722 126.144C243.274 122.563 262.46 121.794 281.345 123.875C297.25 125.487 308.793 130.662 319.972 136.062C333.242 142.475 344.511 149.769 358.917 157.175C391.25 173.731 422.788 178.568 438.239 190.156C462.119 194.337 483.433 193.7 505.109 194.037C518.265 190.081 529.785 186.893 540.169 188.112C582.113 164.975 592.656 156.237 647.847 146.319C669.433 142.456 694.745 142.419 716.013 142.569C719.784 142.569 723.329 142.569 726.601 142.569C765.092 143.562 787.382 146.862 825.304 147.931C855.888 148.794 875.497 140.431 900.15 134.806C909.329 132.764 918.636 131.136 928.03 129.931C973.473 123.819 990.56 124.719 1019.92 131.562C1043.27 137 1071.29 145.587 1111.17 157.943C1142.98 167.75 1184.92 181.437 1238.84 194.393" stroke="#5241AA" stroke-width="0.5" stroke-miterlimit="10"/>
<path d="M-61.959 266.638C-25.0757 256.506 10.0696 242.491 42.6067 224.938C45.6741 223.25 48.8324 221.713 51.9453 220.157C109.272 191.338 115.566 179.376 153.898 159.669C180.164 146.169 194.002 134.769 223.79 128.676C242.454 125.059 261.771 124.341 280.754 126.557C296.977 128.301 308.27 133.738 319.381 139.401C332.309 146.188 343.398 153.688 358.144 161.188C391.341 178.063 424.265 181.944 438.943 192.613C463.55 196.007 485.113 194.019 506.449 192.932C519.741 188.001 531.08 183.782 541.054 184.288C583.022 157.063 589.861 144.913 644.28 133.663C665.979 129.144 691.586 129.051 712.808 129.332L723.442 129.501C762.524 130.063 784.041 135.876 822.555 137.001C853.843 137.938 873.156 130.157 898.059 124.813C907.339 122.876 916.746 121.38 926.234 120.332C971.564 115.12 989.31 117.107 1018.53 124.907C1041.91 131.132 1069.75 140.432 1109.76 152.919C1141.57 162.801 1183.99 176.263 1238.86 187.963" stroke="#5241AA" stroke-width="0.5" stroke-miterlimit="10"/>
<path d="M-63.3218 265.456C-26.8516 255.839 8.07539 242.618 40.6986 226.081C43.7887 224.469 46.9471 223.044 50.0599 221.6C108.228 194.338 115.067 183.688 152.762 164.638C179.551 151.044 192.639 139.363 222.882 133.138C241.666 129.516 261.114 128.88 280.186 131.263C296.591 133.138 307.748 138.763 318.7 144.763C331.401 151.644 342.421 159.406 357.327 167.038C391.409 184.344 425.674 187.138 439.602 196.906C464.96 199.513 487.568 199.1 507.768 193.644C522.241 189.725 532.375 182.394 541.85 182.394C583.817 151.082 586.93 135.519 640.622 122.75C662.389 117.538 688.338 117.407 709.446 117.8C713.309 117.8 716.899 117.95 720.148 118.025C759.82 118.888 780.565 125.769 819.692 127.719C851.616 129.313 870.703 121.532 895.856 116.469C905.225 114.614 914.726 113.248 924.303 112.382C969.611 108.032 987.924 111.125 1017.03 119.882C1040.41 126.913 1068.06 136.925 1108.21 149.525C1140.02 159.481 1182.92 172.719 1238.75 183.275" stroke="#5241AA" stroke-width="0.5" stroke-miterlimit="10"/>
<path d="M-64.5718 264.313C-28.4998 255.152 6.21568 242.687 38.926 227.151C42.0388 225.632 45.2199 224.319 48.3101 222.969C107.205 197.394 114.658 188.17 151.626 169.607C178.892 155.92 191.253 143.957 222.064 137.62C240.945 133.89 260.53 133.253 279.709 135.745C296.341 137.751 307.338 143.713 318.154 149.882C330.606 156.988 341.489 165.013 356.781 172.757C391.704 190.438 427.332 192.182 440.534 201.069C466.595 202.944 489.658 200.863 509.29 194.226C524.036 189.238 533.875 181.101 543.009 180.182C584.976 144.763 584.362 125.807 637.35 111.595C659.208 105.689 685.406 105.539 706.492 105.97L717.262 106.27C757.502 107.414 777.498 115.382 817.238 118.12C849.844 120.389 868.657 112.495 894.083 107.714C903.541 105.924 913.137 104.671 922.803 103.964C968.065 100.457 986.97 104.676 1015.96 114.389C1039.34 122.207 1066.79 132.932 1107.1 145.663C1149.77 159.672 1193.86 170.515 1238.86 178.063" stroke="#5241AA" stroke-width="0.5" stroke-miterlimit="10"/>
<path d="M-65.8892 263.937C-30.2079 255.187 4.29632 243.451 37.086 228.912C40.2216 227.487 43.4026 226.268 46.4928 225.031C106.183 201.087 114.226 193.156 150.49 175.231C178.302 161.45 189.89 149.206 221.042 142.737C240.043 138.991 259.764 138.443 279.028 141.125C295.842 143.262 306.703 149.487 317.405 155.919C329.584 163.25 340.331 171.519 355.85 179.375C391.659 197.431 428.56 198.125 441.079 206.131C467.891 207.143 491.317 203.506 510.472 195.725C525.468 189.631 535.034 180.556 543.736 178.962C585.726 139.456 581.364 117.088 633.624 101.431C655.573 94.8314 682.089 94.6814 703.084 95.2626C707.015 95.3751 710.673 95.5251 713.923 95.6376C754.822 97.0814 773.976 106.1 814.285 109.644C847.527 112.569 866.113 104.75 891.789 100.119C901.342 98.4351 911.033 97.3321 920.782 96.8189C966.021 94.1376 985.493 99.5189 1014.37 110.169C1037.75 118.794 1065.02 130.213 1105.46 143.094C1148.51 157.178 1193.22 167.515 1238.86 173.937" stroke="#5241AA" stroke-width="0.5" stroke-miterlimit="10"/>
<path d="M-67.2075 265.007C-31.9103 256.676 2.38471 245.686 35.245 232.176C38.3806 230.845 41.5844 229.72 44.6746 228.576C105.183 206.32 113.908 199.795 149.354 182.358C177.688 168.483 188.526 155.939 220.132 149.376C239.238 145.587 259.086 145.089 278.436 147.914C295.455 150.201 306.18 156.67 316.745 163.364C328.674 170.864 339.285 179.433 355.077 187.401C391.75 205.833 430.059 205.514 441.783 212.601C469.322 212.826 493.066 207.539 511.812 198.614C526.99 191.376 536.351 181.439 544.645 179.151C586.635 135.539 578.5 109.777 630.079 92.6955C652.073 85.383 678.93 85.1955 699.857 85.908C703.811 86.0393 707.492 86.208 710.741 86.3392C752.163 88.0642 770.567 98.1892 811.467 102.52C845.368 106.12 863.727 98.283 889.607 93.8767C899.266 92.2925 909.057 91.3209 918.895 90.9705C964.112 89.0955 984.13 95.6579 1012.9 107.245C1036.28 116.62 1063.38 128.808 1103.96 141.802C1147.32 156.028 1192.59 165.917 1238.8 171.258" stroke="#5241AA" stroke-width="0.5" stroke-miterlimit="10"/>
<path d="M-68.5024 266.075C-33.5919 258.129 0.487123 247.877 33.4048 235.419C36.5631 234.182 39.7669 233.188 42.857 232.138C104.206 211.513 113.295 206.357 148.218 189.482C177.052 175.532 187.163 162.688 219.201 155.994C238.419 152.15 258.406 151.709 277.846 154.701C295.069 157.157 305.657 163.832 316.109 170.807C327.788 178.588 338.24 187.344 354.305 195.425C391.864 214.175 431.559 212.9 442.488 219.088C467.571 218.842 492.059 212.751 513.13 201.519C528.467 193.119 537.669 182.338 545.531 179.338C587.544 131.638 575.615 102.463 626.534 83.9571C648.574 75.9134 675.772 75.7634 696.608 76.5509C700.63 76.7009 704.311 76.8884 707.583 77.0572C749.55 79.1197 767.273 90.1821 808.763 95.3946C843.277 99.6508 861.455 91.8134 887.585 87.6321C896.674 86.1884 906.262 85.9634 917.123 85.1384C962.158 81.7071 982.903 91.7946 1011.55 104.338C1034.94 114.576 1061.86 127.401 1102.58 140.526C1146.29 154.893 1192.15 164.353 1238.91 168.651" stroke="#5241AA" stroke-width="0.5" stroke-miterlimit="10"/>
<path d="M-69.8203 267.144C-35.2796 259.572 -1.40594 250.063 31.5643 238.682C34.7453 237.557 37.9491 236.638 41.062 235.7C103.183 216.95 112.976 212.919 147.082 196.607C176.461 182.563 185.709 169.438 218.292 162.613C237.654 158.719 257.809 158.335 277.369 161.488C294.773 164.113 305.225 171.013 315.564 178.251C326.925 186.257 337.286 195.257 353.623 203.451C392.068 222.65 433.149 220.325 443.283 225.557C469.036 224.442 493.81 217.049 514.47 204.313C529.899 194.769 538.987 183.126 546.417 179.432C588.453 127.645 572.706 95.0572 622.967 75.1073C645.075 66.3511 672.591 66.2199 693.404 67.1011C697.449 67.2699 701.175 67.4948 704.425 67.6636C746.982 70.0448 763.933 82.251 806.036 88.176C841.232 93.1072 859.069 85.2135 885.563 81.2948C895.455 80.1589 905.414 79.458 915.396 79.1948C960.499 76.7761 981.698 87.8385 1010.26 101.32C1033.62 112.363 1060.38 125.882 1101.15 139.138C1145.19 153.617 1191.59 162.603 1238.84 165.801" stroke="#5241AA" stroke-width="0.5" stroke-miterlimit="10"/>
<path d="M-71.1382 268.212C-36.9518 260.996 -3.27259 252.233 29.7465 241.962C32.9276 240.931 36.1314 240.087 39.2443 239.281C102.184 222.181 112.567 219.518 146.037 203.656C175.848 189.631 184.346 176.187 217.36 169.25C236.804 165.3 257.068 164.967 276.687 168.275C294.296 171.069 304.635 178.194 314.814 185.693C325.993 193.906 336.15 203.168 352.782 211.475C392.068 231.05 434.581 227.637 443.897 232.1C470.394 230.16 495.514 221.501 515.811 207.312C531.285 196.587 540.282 184.118 547.303 179.731C589.339 123.837 569.775 87.7251 619.422 66.4627C641.576 56.9752 669.41 56.8628 690.133 57.8377C694.222 58.0252 697.972 58.269 701.221 58.4752C744.392 61.1752 760.547 74.4314 803.264 81.1439C839.119 86.7689 856.706 78.8189 883.404 75.1439C893.388 74.0702 903.442 73.5004 913.51 73.4377C958.681 72.0314 980.335 84.0689 1008.78 98.5063C1032.16 110.338 1058.77 124.569 1099.67 137.881C1144.06 152.489 1191.05 161.02 1238.77 163.137" stroke="#5241AA" stroke-width="0.5" stroke-miterlimit="10"/>
<path d="M-72.4111 269.282C-33.4887 261.126 1.43467 252.819 27.9283 245.207C31.1548 244.269 34.3585 243.557 37.4487 242.807C101.229 227.507 112.181 226.082 144.832 210.932C175.256 196.757 183.095 183.013 216.474 175.945C236.024 171.946 256.42 171.671 276.118 175.138C293.932 178.12 304.157 185.432 314.2 193.213C325.107 201.651 335.127 211.157 352.032 219.576C392.204 239.526 436.102 235.082 444.623 238.569C471.846 235.783 497.272 225.874 517.174 210.294C532.67 198.388 542.599 185.826 548.234 179.995C600.495 125.751 566.844 80.4137 615.9 57.8013C638.076 47.5638 666.297 47.4888 686.928 48.5576C691.064 48.7638 694.813 49.0451 698.085 49.2701C741.779 52.2888 757.161 66.595 800.514 74.0762C837.028 80.395 854.365 72.4075 881.336 68.995C891.389 67.7646 901.56 67.3189 911.715 67.6638C956.909 68.9388 979.062 80.3012 1007.42 95.6574C1030.78 108.314 1057.18 123.239 1098.31 136.739C1143.08 151.468 1190.66 159.549 1238.84 160.607" stroke="#5241AA" stroke-width="0.5" stroke-miterlimit="10"/>
<path d="M-73.7515 270.351C-34.3973 262.439 0.298838 254.939 26.0653 248.47C29.3146 247.645 32.5183 247.026 35.6085 246.37C100.275 232.87 111.749 232.664 143.673 218.001C174.643 203.751 181.71 189.67 215.52 182.489C235.192 178.438 255.736 178.22 275.528 181.851C293.523 185.039 303.612 192.539 313.519 200.601C324.198 209.264 333.968 219.014 351.237 227.545C392.272 247.889 437.421 242.395 445.328 245.001C476.547 241.251 501.087 227.826 518.492 213.126C533.965 200.001 543.759 186.445 549.098 180.126C599.654 120.37 563.867 72.9706 612.31 48.9894C634.509 38.0207 663.116 37.9832 683.657 39.1457C687.837 39.3895 691.632 39.6707 694.881 39.9145C739.166 43.2707 753.799 58.6644 797.743 66.8956C834.893 73.8893 851.98 65.8456 879.2 62.6956C889.356 61.5598 899.623 61.252 909.852 61.7769C955.068 63.7831 977.745 76.3831 1006.01 92.6955C1029.35 106.158 1055.59 121.777 1096.9 135.408C1128.91 145.964 1175.45 157.42 1238.86 157.908" stroke="#5241AA" stroke-width="0.5" stroke-miterlimit="10"/>
<path d="M-75.0693 271.419C-35.3062 263.694 -0.837258 257.094 24.2249 251.713C27.4968 251.02 30.7006 250.495 33.7908 249.838C99.2068 238.27 111.34 239.263 142.537 225.126C173.734 210.988 180.346 196.42 214.611 189.126C234.386 185.006 255.068 184.839 274.937 188.638C293.115 192.051 303.112 199.701 312.882 208.026C323.312 216.895 333.014 226.907 350.464 235.551C392.386 256.176 438.898 249.745 446.032 251.451C478.002 246.913 502.564 231.913 519.833 216.013C535.261 201.801 544.827 187.157 549.984 180.389C598.586 115.233 560.868 65.639 608.766 40.3266C630.965 28.5891 659.935 28.6079 680.43 29.8641C684.634 30.1266 688.451 30.4453 691.791 30.7078C736.644 34.4578 750.527 50.8078 795.062 59.8452C832.871 67.514 849.73 59.414 877.201 56.5265C887.46 55.4794 897.822 55.3035 908.125 56.0015C953.364 58.7577 976.518 72.5952 1004.72 89.8451C1028.03 104.114 1054.11 120.426 1095.6 134.189C1127.66 144.82 1174.63 156.07 1239 155.264" stroke="#5241AA" stroke-width="0.5" stroke-miterlimit="10"/>
<path d="M-76.3643 272.488C-36.2149 264.988 -1.97312 259.251 22.3846 254.938C25.6793 254.357 28.8831 253.907 31.9732 253.457C98.1845 243.688 110.931 245.863 141.401 232.232C173.462 217.907 178.96 203.17 213.679 195.745C233.567 191.553 254.396 191.444 274.347 195.426C292.706 199.082 302.612 206.882 312.246 215.451C322.426 224.563 331.969 234.801 349.715 243.576C392.477 264.67 440.715 259.851 446.737 257.92C477.82 248.001 504.018 236.038 521.173 218.901C536.533 203.545 546.008 187.889 550.893 180.482C597.359 110.076 557.846 58.1204 605.221 31.4767C627.42 18.9893 656.777 19.083 677.181 20.4142C681.453 20.6955 685.27 21.033 688.542 21.3142C733.985 25.3267 747.073 42.8017 792.221 52.6266C830.667 60.9891 847.276 52.8141 875.02 50.1891C885.384 49.2337 895.841 49.1897 906.217 50.0579C951.478 53.5454 975.132 68.6391 1003.22 86.8265C1026.53 101.826 1052.45 118.926 1094.1 132.82C1126.19 143.526 1173.63 154.532 1238.93 152.489" stroke="#5241AA" stroke-width="0.5" stroke-miterlimit="10"/>
<path d="M-77.6826 273.557C-37.1242 266.188 -3.13244 261.463 20.5437 258.238C23.861 257.788 27.0648 257.413 30.1777 257.057C97.1615 249.144 110.545 252.463 140.265 239.376C172.984 224.938 177.528 209.938 212.77 202.438C232.773 198.193 253.745 198.141 273.778 202.288C292.274 206.207 302.112 214.119 311.587 222.913C321.539 232.288 330.923 242.732 348.942 251.6C392.59 273.069 441.851 264.95 447.441 264.407C481.523 261.05 505.449 240.182 522.423 221.807C533.903 208.988 543.712 195.206 551.688 180.688C595.996 105.164 554.733 50.7138 601.676 22.7389C623.853 9.50142 653.618 9.6139 673.954 11.0576C678.249 11.3576 682.111 11.7326 685.315 12.0326C731.304 16.4389 743.642 34.9451 789.426 45.5013C828.485 54.5762 844.89 46.27 872.883 43.945C883.354 43.0817 893.908 43.1761 904.353 44.2263C949.66 48.445 973.745 64.8512 1001.78 83.9199C1025.05 99.8385 1050.82 117.52 1092.67 131.526C1124.8 142.307 1172.65 153.107 1238.93 149.807" stroke="#5241AA" stroke-width="0.5" stroke-miterlimit="10"/>
<path d="M-79 274.625C-38.1008 267.575 -4.3135 263.713 18.7037 261.5C94.8671 254.188 108.818 259.625 139.129 246.5C172.303 232.119 176.234 216.669 211.839 209C231.954 204.684 253.073 204.684 273.188 209C311.315 217.625 312.36 242.038 348.17 259.625C392.682 281.487 443.283 271.869 448.145 270.875C512.948 257.75 543.168 199.044 552.666 180.875C594.769 100.401 551.757 43.3071 598.109 14.001C625.012 -3.00523 663.73 0.876009 682.18 2.751C728.737 7.43849 740.325 27.0134 786.7 38.3759C838.96 51.2008 850.48 32.7509 902.581 38.3759C985.697 47.4321 999.035 99.1256 1091.17 130.251C1123.32 141.107 1171.63 151.682 1238.86 147.125" stroke="#5241AA" stroke-width="0.5" stroke-miterlimit="10"/>
<path d="M-77.7725 272.281C-37.6003 265.231 -4.3811 261.031 18.6361 258.706C92.7773 250.981 107.251 256.081 137.38 242.938C169.94 228.688 174.28 213.688 208.999 205.963C228.694 201.669 249.368 201.45 269.189 205.325C306.816 212.656 308.271 236.469 343.535 253.381C387.093 274.419 436.172 265.663 441.852 264.894C494.998 257.788 524.309 214.569 538.738 191.507C541.692 186.8 543.827 182.75 545.554 179.825C588.726 103.644 547.963 48.7821 593.634 21.1072C620.9 4.62603 659.936 8.76978 679.158 10.551C696.774 12.1468 713.849 16.54 729.442 23.4885C745.347 30.0697 760.23 37.4947 784.701 42.4259C792.199 43.9259 798.879 44.7509 804.878 45.4634C841.233 49.7946 855.252 39.1259 899.06 45.5571C916.007 48.0124 932.326 52.8245 947.321 59.7883C988.016 78.5382 1013.46 112.288 1076.47 136.926C1080.17 138.376 1084.03 139.788 1088.06 141.163C1120.51 152.3 1169.54 163.382 1237.8 159.125" stroke="#5241AA" stroke-width="0.5" stroke-miterlimit="10"/>
<path d="M-76.5459 269.938C-37.1918 262.889 -4.44967 258.52 18.5902 255.932C90.6637 247.814 105.592 252.539 135.63 239.357C167.6 225.407 172.326 210.539 206.068 202.945C225.358 198.663 245.603 198.213 265.144 201.632C302.204 207.764 304.18 230.807 338.877 247.157C381.503 267.238 429.287 260.77 435.512 258.914C484.682 244.382 516.584 211.57 531.444 189.839C534.466 185.414 536.556 181.533 538.26 178.795C582.431 106.814 544.077 54.3143 589.021 28.2144C616.514 12.277 655.982 16.6645 675.977 18.3707C693.731 19.8747 711.035 23.9028 727.124 30.2769C743.279 36.2206 758.389 42.6519 782.565 46.4581C790.086 47.6581 796.811 48.1081 802.81 48.8206C839.051 53.1518 852.457 44.7331 895.379 52.7581C912.131 55.9438 928.171 61.284 942.913 68.583C982.085 87.3329 1008.81 122.264 1073.09 147.726C1076.83 149.189 1080.74 150.651 1084.81 152.076C1117.53 163.495 1167.29 175.083 1236.59 171.145" stroke="#5241AA" stroke-width="0.5" stroke-miterlimit="10"/>
<path d="M-75.3188 267.594C-36.7827 260.563 -4.54049 255.931 18.4767 253.063C88.5052 244.606 103.933 248.9 133.835 235.719C165.191 221.994 170.326 207.406 203.25 199.85C222.126 195.605 241.925 194.964 261.145 197.975C297.5 202.944 300.113 225.219 334.241 240.931C375.936 260.131 422.197 255.219 429.218 252.969C468.262 240.056 501.454 217.418 524.173 188.207C527.263 184.063 529.331 180.35 530.989 177.782C576.115 110.151 540.214 59.8071 584.363 35.2822C612.174 19.8697 652.005 24.5385 672.773 26.1322C690.67 27.5732 708.199 31.2462 724.761 37.0259C741.211 42.3321 756.571 47.7509 780.384 50.4696C787.973 51.3321 794.721 51.4258 800.72 52.1383C836.915 56.4883 849.594 50.2634 891.607 59.9196C908.132 63.8531 923.893 69.7121 938.414 77.3195C976.064 96.2007 1004.17 132.126 1069.59 158.488C1073.36 159.988 1077.31 161.482 1081.45 162.969C1114.44 174.65 1164.95 186.744 1235.27 183.107" stroke="#5241AA" stroke-width="0.5" stroke-miterlimit="10"/>
<path d="M-74.0918 265.27C-36.3736 258.22 -4.60857 253.345 18.454 250.27C86.4376 241.476 102.388 245.338 132.063 232.138C162.783 218.62 168.418 204.351 200.342 196.814C218.821 192.547 238.205 191.651 257.146 194.189C292.979 197.939 296.046 219.501 329.629 234.595C370.392 253.063 414.586 245.713 422.925 246.97C470.981 238.963 501.201 205.72 516.925 186.52C520.083 182.676 522.105 179.151 523.877 176.732C570.003 113.395 536.556 65.3391 579.887 42.4266C608.062 27.5392 648.188 32.4704 669.751 33.9892C687.807 35.3602 705.567 38.6758 722.579 43.8516C739.348 48.5204 754.89 52.9079 778.407 54.5579C786.041 55.1016 792.813 54.8203 798.857 55.5328C835.007 59.8828 846.958 55.9266 888.199 67.139C905.672 71.9015 920.009 78.7265 934.278 86.1515C970.451 105.07 999.808 142.195 1066.47 169.326C1070.26 170.864 1074.26 172.395 1078.47 173.92C1111.76 185.901 1163 198.501 1234.34 195.164" stroke="#5241AA" stroke-width="0.5" stroke-miterlimit="10"/>
<path d="M-72.8877 262.926C-36.0557 255.895 -4.69962 250.776 18.4766 247.588C84.3698 238.476 100.729 241.813 130.404 228.688C160.488 215.338 166.464 201.407 197.592 193.907C215.642 189.643 234.571 188.532 253.17 190.645C288.321 193.42 292.001 214.026 325.016 228.482C364.825 245.901 407.405 239.207 416.676 241.026C463.301 233.751 493.498 202.814 509.699 184.889C512.925 181.326 514.925 177.97 516.743 175.72C563.845 116.714 532.921 70.9265 575.388 49.5703C603.926 35.2079 644.371 40.4204 666.684 41.8266C689.405 43.2516 705.424 47.1328 720.375 50.6578C737.462 54.6891 753.367 60.539 776.384 58.6453C783.189 58.0401 790.058 58.1346 796.834 58.9266C832.962 63.2765 844.141 61.4953 884.586 74.3765C901.513 79.7577 915.601 87.1639 930.029 95.0014C964.725 113.901 995.332 152.17 1063.22 180.182C1067.06 181.757 1071.1 183.332 1075.36 184.907C1108.92 197.151 1160.88 210.257 1233.27 207.238" stroke="#5241AA" stroke-width="0.5" stroke-miterlimit="10"/>
<path d="M-71.6616 260.562C-35.5567 253.531 -4.76868 248.169 18.3166 244.775C82.233 235.4 99.1153 238.25 128.654 225.088C158.192 211.925 164.531 198.35 194.729 190.832C221.04 184.288 242.967 185.694 249.261 186.913C282.821 193.475 288.002 208.381 320.471 222.2C359.325 238.738 400.338 232.644 410.472 235.006C455.643 228.444 485.795 199.888 502.541 183.2C505.813 179.919 507.789 176.732 509.63 174.632C557.709 119.957 529.375 76.4944 570.979 56.6195C599.926 42.7821 640.621 48.2758 663.729 49.5883C686.837 50.9008 703.038 54.4258 718.261 57.407C735.644 60.8008 752.094 65.882 774.452 62.6383C781.2 61.6084 788.103 61.4755 794.902 62.2445C830.984 66.5945 841.413 66.9882 881.04 81.5194C897.445 87.5194 911.215 95.5256 925.666 103.701C958.908 122.451 990.786 162.013 1059.88 190.907C1063.75 192.519 1067.84 194.132 1072.15 195.744C1106.01 208.269 1158.7 221.881 1232.11 219.181" stroke="#5241AA" stroke-width="0.5" stroke-miterlimit="10"/>
<path d="M-70.4341 258.275C-35.1471 251.187 -4.859 245.562 18.2491 242.037C80.1205 232.438 97.5026 234.744 126.905 221.581C155.761 208.644 162.578 195.331 191.889 187.831C217.474 181.288 238.787 182.094 245.172 183.256C278.073 189.294 283.799 202.794 315.745 215.975C353.645 231.65 393 226.119 404.088 229.1C447.827 223.269 477.865 197.225 495.179 181.606C497.735 179.065 500.132 176.418 502.359 173.675C551.37 123.332 525.695 82.2131 566.299 63.8007C595.678 50.507 636.622 56.3007 660.503 57.4819C683.475 58.6444 700.357 61.8507 715.876 64.2694C733.576 67.0256 750.572 71.2069 772.249 66.7631C778.959 65.2966 785.952 64.9272 792.835 65.6756C828.894 70.0444 838.551 72.5756 877.383 88.7943C893.288 95.413 906.694 103.982 921.258 112.569C953.069 131.319 986.197 172.006 1056.5 201.781C1060.39 203.431 1064.53 205.081 1068.9 206.731C1102.99 219.538 1156.45 233.656 1230.91 231.256" stroke="#5241AA" stroke-width="0.5" stroke-miterlimit="10"/>
<path d="M-69.2075 255.969C-34.7386 248.919 -4.9503 243.106 18.2032 239.281C78.0069 229.419 95.889 231.2 125.268 218.038C153.511 205.306 160.737 192.331 189.139 184.869C214.133 178.325 234.719 178.532 241.286 179.638C273.551 185.094 279.913 197.244 311.223 209.806C348.169 224.6 386.001 219.65 397.907 223.138C440.192 218.038 470.071 194.319 488.044 180.013C490.623 177.682 493.043 175.234 495.293 172.682C545.28 126.688 522.263 87.9507 561.867 70.9632C591.678 58.1945 632.85 64.2508 657.503 65.3383C680.68 66.3883 697.948 69.257 713.74 71.1132C732.51 73.2435 751.552 73.1614 770.294 70.8695C778.292 70.0257 785.018 68.3757 790.948 68.9945C826.962 73.382 835.847 78.0132 873.883 95.9381C889.197 103.157 902.353 112.344 917.054 121.307C947.479 139.907 981.789 181.888 1053.39 212.544C1057.29 214.213 1061.5 215.919 1065.95 217.625C1100.35 230.75 1154.57 245.338 1229.98 243.238" stroke="#5241AA" stroke-width="0.5" stroke-miterlimit="10"/>
<path d="M-67.8662 252.745C-34.2152 245.714 -4.90414 239.62 18.2494 235.626C75.9172 225.557 94.2992 226.814 123.406 213.595C151.058 201.07 158.67 188.414 186.186 180.97C210.362 174.426 230.403 174.051 237.151 175.083C268.825 179.901 275.664 190.776 306.498 202.701C342.466 216.614 378.73 212.245 391.5 216.276C432.399 211.907 461.938 190.664 480.66 177.426C483.263 175.309 485.714 173.068 488 170.714C538.783 129.07 518.651 92.7329 557.21 77.1517C587.498 64.908 628.852 71.2268 654.3 72.2205C677.635 73.1392 695.313 75.6705 711.377 76.9642C729.691 78.4455 746.755 77.1892 768.182 73.983C776.294 72.7643 782.996 70.7955 788.904 71.508C824.873 75.8955 833.007 82.6267 870.248 102.295C885.017 110.114 897.855 119.883 912.67 129.258C941.731 147.67 977.222 190.945 1049.93 222.501C1053.89 224.226 1058.11 225.951 1062.63 227.714C1097.31 241.064 1152.18 256.195 1228.71 254.414" stroke="#5241AA" stroke-width="0.5" stroke-miterlimit="10"/>
<path d="M-66.7534 244.624C-33.9204 237.593 -5.1092 231.312 18.067 227.056C73.8036 216.8 92.6854 217.437 121.656 204.312C148.695 191.993 156.715 179.637 183.345 172.231C206.794 165.687 226.199 164.731 233.151 165.687C264.235 169.831 271.574 179.468 301.862 190.756C336.854 203.881 371.55 199.981 385.206 204.593C424.605 200.843 451.667 179.168 473.412 170.037C476.297 167.487 478.797 165.425 480.796 163.962C532.443 126.687 515.197 92.7126 552.665 78.5376C583.453 66.8564 624.989 73.4376 651.21 74.3189C674.704 75.1064 692.791 77.3001 709.128 78.0689C727.759 78.9126 745.142 76.4189 766.046 72.3501C774.271 70.7564 780.951 68.4689 786.836 69.2002C822.782 73.5876 830.144 82.3251 866.567 103.813C880.813 112.194 893.333 122.562 908.261 132.369C935.982 150.575 972.632 195.181 1046.55 227.618C1050.53 229.356 1054.81 231.131 1059.38 232.943C1094.35 246.481 1150.02 262.118 1227.5 260.562" stroke="#5241AA" stroke-width="0.5" stroke-miterlimit="10"/>
<path d="M-65.5942 237.313C-33.5111 230.282 -5.19973 223.795 17.9992 219.313C71.7135 208.889 91.1861 208.889 119.906 195.689C146.332 183.595 154.762 171.539 180.483 164.151C203.205 157.626 221.973 156.164 229.153 156.97C259.668 160.401 267.484 168.82 297.318 179.47C331.401 191.657 364.461 188.414 379.003 193.57C416.948 190.645 443.737 170.939 466.232 163.345C468.589 161.405 471.086 159.583 473.707 157.889C526.149 124.945 511.857 93.5202 548.212 80.6015C579.523 69.4828 621.195 76.3265 648.188 77.0765C671.864 77.7515 690.36 79.6077 706.947 79.7765C725.896 79.9827 743.619 76.214 764.069 71.3203C772.385 69.3328 779.065 66.7453 784.95 67.5703C820.828 71.9765 827.463 82.7952 863.068 106.026C876.701 114.97 888.993 125.92 903.967 136.158C930.347 154.12 968.133 200.095 1043.25 233.432C1047.25 235.307 1051.59 237.032 1056.23 238.87C1091.47 252.801 1147.79 268.87 1226.39 267.763" stroke="#5241AA" stroke-width="0.5" stroke-miterlimit="10"/>
<path d="M-64.3213 230.001C-33.0788 222.97 -5.24465 216.276 17.9316 211.532C69.6236 200.995 89.4598 200.376 118.157 187.157C143.969 175.27 152.808 163.514 177.643 156.164C199.683 149.639 217.77 149.095 225.154 148.326C255.033 145.176 263.395 158.264 292.593 168.257C325.653 179.507 357.191 176.901 372.619 182.62C409.133 180.426 435.603 162.764 458.961 156.708C461.342 154.958 463.862 153.341 466.505 151.87C519.72 123.276 508.427 94.3828 543.759 82.7391C575.57 72.2016 617.4 79.2703 645.189 79.9266C669.047 80.4703 687.929 81.9703 704.788 81.5953C724.057 81.1641 742.075 76.0829 762.093 70.3454C770.523 67.9641 777.157 65.0954 783.042 65.8079C818.897 70.2329 824.805 83.0766 859.547 108.108C872.748 117.614 884.654 129.164 899.787 139.833C924.781 157.533 963.771 204.895 1040.09 239.207C1044.14 241.007 1048.51 242.882 1053.2 244.832C1088.72 259.045 1145.8 275.695 1225.41 274.832" stroke="#5241AA" stroke-width="0.5" stroke-miterlimit="10"/>
<path d="M-63.0947 222.67C-32.6703 215.563 -5.35867 208.757 17.863 203.77C67.5328 193.12 87.8461 191.845 116.407 178.607C141.606 166.945 150.854 155.564 174.78 148.064C196.115 141.539 213.588 140.564 221.132 139.57C250.261 135.82 259.282 147.595 287.957 156.951C320.04 167.432 350.033 165.295 366.324 171.576C401.384 170.095 427.673 154.514 451.622 149.976C454.025 148.412 456.57 147.002 459.234 145.757C513.175 121.495 505.018 95.1326 539.033 84.7638C571.457 74.8451 613.356 82.1388 641.894 82.6638C665.934 83.0951 685.225 84.2389 702.357 83.3014C721.943 82.2326 740.257 75.8014 759.843 69.3701C768.364 66.5577 774.998 63.4077 780.861 64.1389C816.67 68.5639 821.896 83.4138 855.842 110.264C868.521 120.332 880.109 132.464 895.333 143.582C919.145 161.001 959.136 209.77 1036.66 244.832C1040.74 246.694 1045.15 248.569 1049.91 250.457C1085.72 264.932 1143.5 282.088 1224.16 281.526" stroke="#5241AA" stroke-width="0.5" stroke-miterlimit="10"/>
<path d="M-61.8672 215.357C-32.3289 208.345 -5.44899 201.257 17.7954 196.007C65.5112 185.282 86.2334 183.295 114.658 170.076C139.266 158.62 148.9 147.445 171.94 140.076C192.549 133.551 209.408 132.145 217.134 130.926C245.49 126.482 255.193 137.057 283.322 145.757C314.428 155.376 342.853 153.801 360.031 160.645C393.659 159.895 419.562 146.357 444.374 143.357C446.807 141.986 449.376 140.788 452.054 139.776C506.586 119.77 501.679 96.1451 534.489 86.9201C567.299 77.6951 609.471 85.0451 638.805 85.5139C663.003 85.8326 682.703 86.6389 700.153 85.1389C720.035 83.4326 738.644 75.7639 757.821 68.4514C766.433 65.2077 773.068 61.814 778.907 62.5265C814.671 66.9702 819.238 83.7889 852.208 112.495C864.409 123.107 875.679 135.82 890.994 147.407C913.534 164.489 954.615 214.701 1033.32 250.738C1037.41 252.613 1041.89 254.488 1046.71 256.532C1082.74 271.363 1141.27 289.026 1222.96 288.688" stroke="#5241AA" stroke-width="0.5" stroke-miterlimit="10"/>
<path d="M-60.6406 208.064C-31.8521 201.051 -5.51757 193.776 17.7495 188.282C63.3749 177.482 84.6198 174.801 112.908 161.564C136.903 150.314 146.991 139.458 169.077 132.183C189.004 125.658 205.25 123.82 213.134 122.376C240.741 117.333 251.08 126.595 278.709 134.658C308.816 143.433 335.673 142.383 353.691 149.789C385.865 149.789 411.473 138.295 437.057 136.833C439.538 135.655 442.138 134.657 444.828 133.851C500.178 118.064 498.361 97.2139 529.944 89.114C563.55 80.5078 605.585 88.139 635.714 88.4015C660.072 88.6265 680.181 89.0765 697.858 87.014C718.058 84.6703 736.917 75.5578 755.708 67.5891C764.41 63.8391 771.022 60.2578 776.862 60.9891C812.603 65.4141 816.511 84.2203 848.572 114.783C860.273 125.939 871.293 139.158 886.608 151.289C907.921 168.032 950.047 219.688 1029.96 256.626C1034.1 258.538 1038.6 260.513 1043.48 262.551C1079.83 277.551 1139.09 295.738 1221.82 295.794" stroke="#5241AA" stroke-width="0.5" stroke-miterlimit="10"/>
<path d="M-59.4131 200.713C-31.4426 193.701 -5.60789 186.257 17.6819 180.482C61.3078 169.644 83.0298 166.232 111.159 152.957C134.54 141.951 144.992 131.376 166.237 124.138C180.145 119.638 194.498 116.138 209.136 113.676C235.993 108.051 246.968 116.001 274.075 123.407C303.181 131.338 328.607 130.907 347.443 138.801C378.163 139.495 403.498 130.082 429.855 130.138C432.375 129.159 434.999 128.375 437.694 127.795C493.544 116.245 495.089 98.226 525.4 91.2322C559.642 83.3385 601.723 90.6322 632.602 91.2322C657.141 91.701 677.636 91.4197 695.609 88.8135C716.059 85.8322 735.236 75.3323 753.641 66.6511C762.411 62.5261 769.046 58.6261 774.863 59.3573C810.559 63.8011 813.853 84.5573 844.982 116.995C856.184 128.676 866.863 142.513 882.291 155.094C902.355 171.482 945.526 224.6 1026.64 262.438C1030.8 264.313 1035.35 266.394 1040.28 268.475C1076.93 283.794 1136.91 302.469 1220.66 302.825" stroke="#5241AA" stroke-width="0.5" stroke-miterlimit="10"/>
<path d="M-58.1865 193.382C-30.9204 186.37 -5.67647 178.776 17.6134 172.757C59.2397 161.92 81.4161 157.757 109.432 144.464C132.154 133.682 143.038 123.389 163.374 116.189C176.927 111.567 190.889 107.807 205.136 104.939C231.289 98.7701 242.854 105.389 269.439 112.101C297.546 119.226 321.336 119.245 341.149 127.757C370.437 129.201 395.477 121.832 422.584 123.426C425.15 122.653 427.797 122.076 430.491 121.701C486.977 114.295 491.84 99.2013 520.856 93.2763C555.756 86.1514 597.837 93.5388 629.511 93.9888C654.232 94.3263 675.114 93.7076 693.359 90.5389C714.172 86.9201 733.509 75.0326 751.595 65.6389C760.389 61.0639 767.069 56.9202 772.863 57.6515C808.536 62.1139 811.217 84.8201 841.369 119.132C852.116 131.357 862.5 145.739 877.951 158.807C896.856 174.82 941.027 229.42 1023.37 268.176C1027.55 270.144 1032.16 272.207 1037.16 274.344C1074.11 289.926 1134.87 309.107 1219.6 309.782" stroke="#5241AA" stroke-width="0.5" stroke-miterlimit="10"/>
<path d="M-56.9824 186.051C-30.6252 179.057 -5.7448 171.295 17.545 164.939C57.1037 154.082 79.8254 149.17 107.682 135.857C129.836 125.282 141.083 115.232 160.533 108.126C173.732 103.47 187.289 99.5369 201.114 96.3513C226.585 89.6576 238.742 94.9076 264.735 100.964C291.865 107.245 314.087 107.789 334.787 116.882C362.621 119.039 387.365 113.732 415.267 116.882C417.878 116.309 420.548 115.938 423.242 115.776C480.365 112.476 488.477 100.439 516.243 95.5075C551.802 89.1701 593.883 96.6325 626.352 96.895C651.233 97.12 672.523 96.1638 691.041 92.4326C712.173 88.1763 731.713 74.9014 749.459 64.7951C758.298 59.7514 765.001 55.4202 770.795 56.1139C806.423 60.5764 808.558 85.2513 837.711 121.439C847.981 134.189 858.16 149.095 873.543 162.689C891.357 178.307 936.437 234.313 1020.01 274.063C1024.21 276.069 1028.87 278.169 1033.94 280.344C1071.15 296.188 1132.59 315.894 1218.41 316.813" stroke="#5241AA" stroke-width="0.5" stroke-miterlimit="10"/>
<path d="M-55.7559 178.719C-30.2166 171.707 -5.76793 163.832 17.4765 157.138C55.1492 146.319 78.2118 140.601 105.932 127.288C127.495 116.938 139.129 107.207 157.67 100.101C170.52 95.3391 183.69 91.1886 197.115 87.6695C221.904 80.4507 234.606 84.3507 260.168 89.732C286.298 95.207 306.975 96.2569 328.56 105.894C354.963 108.782 379.412 105.538 408.087 110.188C410.753 109.894 413.44 109.738 416.13 109.719C473.843 107.601 485.295 101.563 511.766 97.5882C547.985 92.1507 590.088 99.9507 623.307 99.6882C648.301 99.4819 670.069 98.4882 688.86 94.1945C710.309 89.3007 730.009 74.6195 747.459 63.8196C756.343 58.3071 763.092 53.7321 768.863 54.4446C804.468 58.9071 806.059 85.5132 834.166 123.576C843.981 136.869 853.865 152.3 869.293 166.457C885.88 181.682 932.028 239.263 1016.69 279.837C1020.95 281.887 1025.63 284.019 1030.75 286.231C1068.25 302.394 1130.43 322.587 1217.28 323.862" stroke="#5241AA" stroke-width="0.5" stroke-miterlimit="10"/>
<path d="M-54.5283 171.407C-29.807 164.413 -5.83553 156.407 17.4089 149.394C53.1275 138.632 76.5991 132.107 104.183 118.757C125.133 108.632 137.153 99.1819 154.83 92.1132C171.19 85.5507 184.369 81.8008 193.116 78.9883C217.247 71.2821 230.494 73.8133 255.533 78.482C278.183 82.7737 300.474 88.2663 322.267 94.9257C346.17 101.863 371.119 108.763 400.816 103.532C403.512 103.222 406.251 103.273 408.928 103.682C467.414 108.444 482.024 102.744 507.222 99.6882C544.123 95.2257 586.203 102.913 620.218 102.501C645.462 102.201 667.547 100.832 686.611 95.9944C708.356 90.3695 728.237 74.357 745.392 62.8633C754.299 56.8821 761.116 52.0821 766.887 52.8134C802.424 57.2946 803.515 85.8507 830.508 125.788C839.869 139.626 849.526 155.544 864.886 170.244C880.246 184.944 927.53 244.044 1013.3 285.669C1017.58 287.712 1022.39 289.906 1027.51 292.175C1065.29 308.6 1128.19 329.3 1216.1 330.894" stroke="#5241AA" stroke-width="0.5" stroke-miterlimit="10"/>
<path d="M-53.3018 164.076C-29.3984 157.082 -5.88139 149.076 17.363 141.576C51.1048 130.87 75.0082 123.52 102.433 110.151C122.883 100.251 135.198 91.0822 151.967 84.051C167.622 77.4698 180.346 73.3635 189.117 70.3073C212.611 62.1136 226.358 63.2948 250.897 67.2511C275.005 71.1323 291.001 76.0823 315.973 83.9385C338.467 91.026 362.416 92.3947 393.568 96.8759C396.431 97.2884 399.18 97.251 401.747 97.626C460.96 106.401 478.752 103.963 502.678 101.788C540.237 98.3947 582.34 105.857 617.105 105.313C642.53 104.901 665.025 103.176 684.361 97.8134C706.424 91.626 726.442 74.151 743.324 61.9448C752.254 55.4949 759.229 50.4699 764.887 51.2011C800.378 55.6824 800.992 86.2072 826.963 128.076C835.893 142.457 845.345 158.826 860.614 174.126C874.997 188.526 923.099 249.032 1010.06 291.556C1014.37 293.638 1019.14 295.869 1024.39 298.194C1062.45 314.881 1126.1 336.088 1215.01 338" stroke="#5241AA" stroke-width="0.5" stroke-miterlimit="10"/>
<path d="M-51.9614 156.763C-28.8761 149.769 -5.79075 141.613 17.4082 133.87C49.2187 123.238 73.5083 115.12 100.797 101.657C120.542 91.9822 133.357 83.0947 149.24 76.0823C164.168 69.5198 176.347 65.0761 185.231 61.7011C208.112 53.0199 222.359 52.8511 246.398 56.0761C269.484 59.1886 284.094 64.2323 309.792 72.951C330.946 80.1885 354.463 83.5822 386.41 90.201C389.25 90.7822 392.068 91.0259 394.681 91.5697C454.666 104.338 475.661 101.751 498.247 103.888C536.721 107.375 575.431 108.778 614.128 108.088C639.735 107.582 662.616 105.501 682.293 99.5384C704.674 92.7134 724.806 73.8323 741.37 60.9323C750.299 54.0136 757.275 48.7824 763.001 49.4948C798.47 53.9948 798.583 86.4697 823.486 130.12C831.984 145.026 841.278 161.844 856.41 177.763C869.702 191.732 918.691 253.794 1006.85 297.2C1011.19 299.319 1015.94 301.588 1021.32 303.95C1059.68 320.938 1124.03 342.65 1213.98 344.844" stroke="#5241AA" stroke-width="0.5" stroke-miterlimit="10"/>
<path d="M-50.8477 151.495C-28.5803 144.501 -5.92668 136.289 17.3177 128.151C47.2196 117.632 71.85 108.576 99.1161 95.1699C118.271 85.795 131.472 77.095 146.468 70.1388C160.669 63.5576 172.326 58.7764 181.278 55.1389C203.614 45.9889 218.292 44.4702 241.832 46.9639C263.917 49.3076 277.209 54.3514 303.567 64.1763C323.426 71.5825 346.602 76.9263 379.23 85.7387C382.071 86.5075 384.888 87.0137 387.569 87.745C448.373 104.47 472.481 106.045 493.771 108.182C532.69 112.134 571.902 113.782 611.106 113.114C636.873 112.495 660.162 110.057 680.021 103.532C702.743 96.0325 722.966 75.8013 739.371 62.2826C748.278 54.8951 755.276 49.4201 761.07 50.1514C796.493 54.6701 796.175 89.095 819.942 134.639C828.008 150.107 837.211 167.338 852.139 183.876C864.386 197.432 914.238 261.032 1003.6 305.338C1007.96 307.494 1012.85 309.8 1018.21 312.2C1056.84 329.469 1121.94 351.688 1212.92 354.2" stroke="#5241AA" stroke-width="0.5" stroke-miterlimit="10"/>
<path d="M-49.689 148.663C-28.2396 141.669 -5.97225 133.456 17.0904 124.888C45.0836 114.482 70.1685 104.6 97.1165 91.1379C115.68 81.9317 129.245 73.5505 143.355 66.6505C156.852 60.0505 167.986 54.9693 177.029 50.9568C198.819 41.3381 213.929 38.4881 236.946 40.2318C258.032 41.8256 270.097 46.7381 297.023 57.7068C315.609 65.2067 338.513 72.5567 371.709 83.5817C374.572 84.5192 377.412 85.2879 380.116 86.2066C441.829 106.925 468.868 112.719 488.976 114.8C528.126 118.832 570.639 121.419 607.743 120.425C633.691 119.732 657.368 116.919 677.522 109.832C700.539 101.732 720.852 80.0754 737.053 65.7505C745.96 57.8755 753.117 52.213 758.82 52.9443C794.221 57.4443 793.448 93.8566 816.102 141.256C823.737 157.269 832.893 174.894 847.549 192.088C858.774 205.212 909.466 270.35 1000.03 315.556C1004.44 317.731 1009.35 320.093 1014.78 322.549C1053.7 340.081 1119.51 362.806 1211.53 365.674" stroke="#5241AA" stroke-width="0.5" stroke-miterlimit="10"/>
<path d="M-48.4165 145.964C-27.7624 138.989 -5.8586 130.776 17.0904 121.739C43.9194 111.365 70.0702 99.8368 95.4351 87.2015C113.408 78.2015 127.246 70.0828 140.583 63.2579C153.33 56.6017 163.964 51.2392 173.098 46.9079C194.366 36.8017 209.885 32.6392 232.379 33.6142C252.488 34.4767 263.395 39.1455 290.797 51.3517C308.202 59.0954 330.856 68.3204 364.529 81.5391C367.392 82.664 370.255 83.6953 373.004 84.7828C435.603 109.495 465.369 120.501 484.5 121.533C524.468 123.633 566.821 129.033 604.721 127.851C630.851 127.083 654.914 123.858 675.341 116.226C698.676 107.489 719.057 84.3515 735.053 69.3516C743.915 61.0079 751.186 55.1204 756.889 55.8329C792.244 60.3704 790.972 98.7515 812.557 148.008C820.18 166.459 830.496 184.076 843.277 200.47C853.502 213.201 905.012 279.857 996.763 325.963C1001.19 328.176 1006.15 330.576 1011.65 333.069C1050.84 350.882 1117.39 374.113 1210.44 377.244" stroke="#5241AA" stroke-width="0.5" stroke-miterlimit="10"/>
<path d="M-47.1892 143.376C1.48644 126.25 48.5715 106.196 93.6859 83.3761C166.259 46.645 186.095 26.8076 227.744 27.1264C258.078 27.3701 265.235 38.0201 357.259 79.6262C426.469 110.92 461.074 126.501 479.956 128.376C547.803 134.92 621.967 143.02 673.091 122.751C709.946 108.145 738.985 56.9762 754.89 59.0012C802.038 65.0387 783.428 134.938 838.96 209.001C848.208 221.338 900.514 289.494 993.469 336.5C1029.55 354.744 1101.99 385.081 1209.33 389" stroke="#5241AA" stroke-width="0.5" stroke-miterlimit="10"/>
</svg>
