<svg width="20" height="14" viewBox="0 0 20 14" fill="none" xmlns="http://www.w3.org/2000/svg">
<path d="M7.27314 0.00182602C6.97159 0.0130776 6.68805 0.143598 6.48101 0.361882L0.792124 6.12278L0 6.93291L0.792124 7.74304L6.48101 13.5039C6.92883 13.9608 7.66245 13.9698 8.11927 13.5219C8.57609 13.0741 8.58509 12.3405 8.13727 11.8837L4.37468 8.08509H18.8309C19.2473 8.09184 19.6321 7.87356 19.8414 7.5135C20.0529 7.15569 20.0529 6.71012 19.8414 6.35232C19.6321 5.99226 19.2473 5.77398 18.8309 5.78073H4.37468L8.13727 1.98214C8.48383 1.64683 8.58734 1.13375 8.39381 0.690434C8.20028 0.249365 7.75471 -0.0251782 7.27314 0.00182602Z" fill="#5241AA"/>
</svg>
