<svg width="28" height="24" viewBox="0 0 28 24" fill="none" xmlns="http://www.w3.org/2000/svg">
<path d="M16.7872 13.385V15.6147C16.7872 15.6862 16.7731 15.7571 16.7457 15.8231C16.7184 15.8892 16.6782 15.9493 16.6277 15.9998C16.5771 16.0504 16.5171 16.0905 16.451 16.1179C16.3849 16.1453 16.3141 16.1593 16.2426 16.1593H11.7574C11.613 16.1593 11.4745 16.102 11.3723 15.9998C11.2702 15.8977 11.2128 15.7592 11.2128 15.6147V13.385L0 10.4376V20.0998C0 21.094 0.394907 22.0473 1.09785 22.7503C1.44591 23.0983 1.85912 23.3744 2.31388 23.5628C2.76864 23.7512 3.25605 23.8481 3.74828 23.8481H24.2517C25.2458 23.8481 26.1992 23.4532 26.9022 22.7503C27.6051 22.0473 28 21.094 28 20.0998V10.4376L16.7872 13.385ZM24.2517 3.53691H17.7483V0.877875C17.7483 0.733432 17.6909 0.594905 17.5888 0.492768C17.4866 0.390632 17.3481 0.333252 17.2037 0.333252H10.7963C10.7248 0.333252 10.654 0.347339 10.5879 0.374709C10.5218 0.402079 10.4618 0.442195 10.4112 0.492768C10.3607 0.543341 10.3205 0.60338 10.2932 0.669457C10.2658 0.735533 10.2517 0.806354 10.2517 0.877875V3.53691H3.74828C2.75418 3.53691 1.80079 3.93182 1.09785 4.63476C0.394907 5.3377 0 6.29109 0 7.2852V9.31632H0.0448512L12.1483 12.52H15.8517L27.9551 9.31632H28V7.2852C28 6.29109 27.6051 5.3377 26.9022 4.63476C26.1992 3.93182 25.2458 3.53691 24.2517 3.53691ZM16.659 3.53691H11.341V1.4225H16.659V3.53691ZM12.3021 13.5964V15.0701H15.6979V13.5964H12.3021Z" fill="#6651D4"/>
</svg>
