<svg width="32" height="34" viewBox="0 0 32 34" fill="none" xmlns="http://www.w3.org/2000/svg">
<path d="M15.9985 33.2015C17.0739 33.2015 17.9841 32.4916 18.2828 31.5146H13.7142C14.013 32.4916 14.9231 33.2015 15.9985 33.2015ZM20.3909 26.7511H11.5985C11.0487 26.7511 10.5946 27.2052 10.5946 27.7785C10.5946 28.3282 11.0487 28.7821 11.5985 28.7821H12.554C12.0045 28.7821 11.5506 29.2361 11.5506 29.7856C11.5506 30.359 12.0044 30.813 12.554 30.813H19.4351C20.0085 30.813 20.4626 30.359 20.4626 29.7856C20.4626 29.2361 20.0086 28.7821 19.4351 28.7821H20.3909C20.9643 28.7821 21.4181 28.3282 21.4181 27.7785C21.4181 27.2052 20.9643 26.7511 20.3909 26.7511ZM28.8019 22.0081L27.147 21.0526C26.8281 20.8685 26.4204 20.9778 26.2363 21.2966C26.0659 21.5917 26.1493 21.9607 26.4151 22.1602C26.5546 22.3116 26.514 22.2405 28.2249 23.2435C28.5438 23.4276 28.9515 23.3183 29.1355 22.9995C29.3449 22.6367 29.1673 22.2192 28.8019 22.0081ZM4.0777 15.4184C4.0777 15.0503 3.77924 14.7519 3.41102 14.7519H1.50005C1.13197 14.7519 0.833496 15.0503 0.833496 15.4184C0.833496 15.7866 1.13197 16.0851 1.50005 16.0851H3.41095C3.77924 16.0851 4.0777 15.7866 4.0777 15.4184ZM30.5001 14.7493H28.5892C28.2211 14.7493 27.9226 15.0478 27.9226 15.4159C27.9226 15.7841 28.2211 16.0825 28.5892 16.0825H30.5001C30.8682 16.0825 31.1668 15.7841 31.1668 15.4159C31.1668 15.0478 30.8682 14.7493 30.5001 14.7493ZM4.7717 21.1039L3.11676 22.0594C2.79797 22.2434 2.68869 22.6511 2.87276 22.9699C3.05684 23.2888 3.46459 23.398 3.78338 23.214L5.43825 22.2585C5.75717 22.0744 5.86638 21.6666 5.68231 21.3478C5.4983 21.0291 5.09055 20.9198 4.7717 21.1039ZM27.242 9.66731L28.897 8.71185C29.2157 8.52784 29.3252 8.12003 29.1411 7.80118C28.957 7.48233 28.5492 7.37311 28.2303 7.55719L26.5755 8.51264C26.2567 8.69672 26.1474 9.1044 26.3315 9.42325C26.5155 9.7421 26.9232 9.85132 27.242 9.66731ZM21.9571 5.02903C22.276 5.21317 22.6837 5.10383 22.8677 4.78504L23.8231 3.1301C24.0072 2.81132 23.898 2.4035 23.5792 2.21943C23.2603 2.03535 22.8525 2.14469 22.6685 2.46348L21.7131 4.11842C21.529 4.43721 21.6383 4.84502 21.9571 5.02903ZM15.9717 3.41071C16.3398 3.41071 16.6382 3.11224 16.6382 2.74416V0.833126C16.6382 0.465038 16.3398 0.166504 15.9717 0.166504C15.6035 0.166504 15.3051 0.465102 15.3051 0.833126V2.74409C15.305 3.11218 15.6035 3.41071 15.9717 3.41071ZM9.06834 4.75793C9.25242 5.07672 9.6601 5.186 9.97895 5.00192C10.2978 4.81785 10.407 4.41016 10.2229 4.09138L9.26749 2.43643C9.08348 2.11765 8.67573 2.00824 8.35688 2.19232C8.03803 2.37639 7.92888 2.78421 8.11289 3.10306L9.06834 4.75793ZM3.01925 8.66482L4.67412 9.62027C4.99291 9.80428 5.40066 9.69506 5.58474 9.37621C5.76881 9.05736 5.65953 8.64968 5.34075 8.46567L3.68581 7.51015C3.36702 7.32614 2.95921 7.43523 2.77513 7.75414C2.59112 8.07293 2.70046 8.48074 3.01925 8.66482ZM19.4616 17.1154L18.8917 17.5129C18.5317 17.7641 18.0518 17.7641 17.6919 17.5129L16.0608 16.3768C16.0233 16.3505 15.9745 16.3505 15.9371 16.3768L14.3023 17.5129C13.9423 17.7641 13.4624 17.7641 13.1024 17.5129L12.5362 17.1192C12.4501 17.0545 12.3386 17.1483 12.375 17.2392L15.195 26.05H16.834L19.6228 17.2355C19.6591 17.1627 19.5725 17.0596 19.4616 17.1154Z" fill="#6651D4"/>
<path d="M16.432 5.01669C10.4857 4.77419 5.59033 9.53255 5.59033 15.419C5.59033 19.0177 7.42831 22.1981 10.2081 24.0712C10.9215 24.5422 11.4592 25.2309 11.6841 26.0498H14.1888L11.4762 17.5241C11.1721 16.5706 12.2554 15.7714 13.0772 16.3466L13.6434 16.7403C13.6809 16.7666 13.7297 16.7666 13.7671 16.7403L15.402 15.6042C15.7581 15.3529 16.2419 15.3529 16.598 15.6042L18.2328 16.7403C18.2703 16.7666 18.319 16.7666 18.3527 16.7403L18.9264 16.3429C19.7599 15.7677 20.8244 16.5853 20.5237 17.5202V17.524L17.8111 26.0497H20.3221C20.5717 25.2203 21.134 24.521 21.8543 24.0255C24.599 22.1629 26.3913 19.0282 26.4089 15.4575C26.4266 9.94017 21.9494 5.2381 16.432 5.01669Z" fill="#6651D4"/>
</svg>
