<svg width="27" height="20" viewBox="0 0 27 20" fill="none" xmlns="http://www.w3.org/2000/svg">
<path d="M23.2917 2.78769C20.1059 0.403678 17.0535 0.470681 17.0535 0.470681L16.7416 0.8271C20.529 1.96336 22.2891 3.63425 22.2891 3.63425C16.8703 0.650837 9.96819 0.672244 4.33193 3.63425C4.33193 3.63425 6.15879 1.87412 10.1692 0.737856L9.94651 0.470402C9.94651 0.470402 6.91639 0.403678 3.70833 2.78741C3.70833 2.78741 0.5 8.55768 0.5 15.6649C0.5 15.6649 2.37162 18.8733 7.29532 19.0292C7.29532 19.0292 8.11965 18.0489 8.788 17.2024C5.95861 16.3558 4.88908 14.5957 4.88908 14.5957C6.66673 15.708 8.46411 16.4042 10.7041 16.846C14.3484 17.5961 18.8815 16.8248 22.2672 14.5957C22.2672 14.5957 21.1531 16.4003 18.2345 17.2246C18.9029 18.0489 19.705 19.007 19.705 19.007C24.6287 18.851 26.5 15.6427 26.5 15.6652C26.4997 8.55796 23.2917 2.78769 23.2917 2.78769ZM9.34488 13.5931C8.09713 13.5931 7.07235 12.5014 7.07235 11.1424C7.16354 7.88765 11.549 7.89766 11.6174 11.1424C11.6174 12.5014 10.6146 13.5931 9.34488 13.5931ZM17.4766 13.5931C16.2289 13.5931 15.2041 12.5014 15.2041 11.1424C15.3042 7.89405 19.6349 7.89266 19.7492 11.1424C19.7492 12.5014 18.7466 13.5931 17.4766 13.5931Z" fill="#FCFCFD"/>
</svg>