<svg width="17" height="13" viewBox="0 0 17 13" fill="none" xmlns="http://www.w3.org/2000/svg">
<path d="M14.9022 2.01527C12.8192 0.456495 10.8234 0.500305 10.8234 0.500305L10.6195 0.733348C13.0959 1.47629 14.2467 2.56879 14.2467 2.56879C10.7036 0.618099 6.19074 0.632096 2.50549 2.56879C2.50549 2.56879 3.69998 1.41794 6.32217 0.674996L6.17656 0.500123C6.17656 0.500123 4.19533 0.456495 2.09776 2.01509C2.09776 2.01509 0 5.78796 0 10.435C0 10.435 1.22375 12.5328 4.4431 12.6347C4.4431 12.6347 4.98208 11.9938 5.41908 11.4403C3.56909 10.8867 2.86978 9.73588 2.86978 9.73588C4.03209 10.4632 5.2073 10.9184 6.67192 11.2072C9.0547 11.6977 12.0186 11.1934 14.2324 9.73588C14.2324 9.73588 13.504 10.9158 11.5956 11.4548C12.0326 11.9938 12.5571 12.6202 12.5571 12.6202C15.7764 12.5182 17 10.4205 17 10.4352C16.9998 5.78814 14.9022 2.01527 14.9022 2.01527ZM5.78319 9.08038C4.96735 9.08038 4.29731 8.36652 4.29731 7.47798C4.35693 5.34986 7.22435 5.35641 7.26907 7.47798C7.26907 8.36652 6.61338 9.08038 5.78319 9.08038ZM11.1001 9.08038C10.2843 9.08038 9.61423 8.36652 9.61423 7.47798C9.67967 5.35404 12.5113 5.35314 12.586 7.47798C12.586 8.36652 11.9305 9.08038 11.1001 9.08038Z" fill="#7B61FF"/>
</svg>
