<svg width="20" height="21" viewBox="0 0 20 21" fill="none" xmlns="http://www.w3.org/2000/svg">
<path d="M13.492 2.16675H6.50866C3.47533 2.16675 1.66699 3.97508 1.66699 7.00841V13.9834C1.66699 17.0251 3.47533 18.8334 6.50866 18.8334H13.4837C16.517 18.8334 18.3253 17.0251 18.3253 13.9917V7.00841C18.3337 3.97508 16.5253 2.16675 13.492 2.16675ZM13.1253 13.6251H6.87533C6.53366 13.6251 6.25033 13.3417 6.25033 13.0001C6.25033 12.6584 6.53366 12.3751 6.87533 12.3751H13.1253C13.467 12.3751 13.7503 12.6584 13.7503 13.0001C13.7503 13.3417 13.467 13.6251 13.1253 13.6251ZM13.1253 8.62508H6.87533C6.53366 8.62508 6.25033 8.34175 6.25033 8.00008C6.25033 7.65841 6.53366 7.37508 6.87533 7.37508H13.1253C13.467 7.37508 13.7503 7.65841 13.7503 8.00008C13.7503 8.34175 13.467 8.62508 13.1253 8.62508Z" fill="#98A2B3"/>
</svg>
