<svg width="24" height="24" viewBox="0 0 24 24" fill="none" xmlns="http://www.w3.org/2000/svg">
<path d="M5.1499 22C4.7399 22 4.3999 21.66 4.3999 21.25V2.75C4.3999 2.34 4.7399 2 5.1499 2C5.5599 2 5.8999 2.34 5.8999 2.75V21.25C5.8999 21.66 5.5599 22 5.1499 22Z" fill="#7B61FF"/>
<path opacity="0.4" d="M18.02 12.3301L16.8 11.1101C16.51 10.8601 16.34 10.4901 16.33 10.0801C16.31 9.63011 16.49 9.18011 16.82 8.85011L18.02 7.65011C19.06 6.61011 19.45 5.61011 19.12 4.82011C18.8 4.04011 17.81 3.61011 16.35 3.61011H5.15002C4.94002 3.62011 4.77002 3.79011 4.77002 4.00011V16.0001C4.77002 16.2101 4.94002 16.3801 5.15002 16.3801H16.35C17.79 16.3801 18.76 15.9401 19.09 15.1501C19.42 14.3501 19.04 13.3601 18.02 12.3301Z" fill="#7B61FF"/>
</svg>
