<svg width="18" height="19" viewBox="0 0 18 19" xmlns="http://www.w3.org/2000/svg">
<path d="M15.623 6.50751L10.7105 2.57751C9.75046 1.81251 8.25046 1.80501 7.29796 2.57001L2.38546 6.50751C1.68046 7.07001 1.25296 8.19501 1.40296 9.08001L2.34796 14.735C2.56546 16.0025 3.74296 17 5.02546 17H12.9755C14.243 17 15.443 15.98 15.6605 14.7275L16.6055 9.07251C16.7405 8.19501 16.313 7.07001 15.623 6.50751ZM9.56296 14C9.56296 14.3075 9.30796 14.5625 9.00046 14.5625C8.69296 14.5625 8.43796 14.3075 8.43796 14V11.75C8.43796 11.4425 8.69296 11.1875 9.00046 11.1875C9.30796 11.1875 9.56296 11.4425 9.56296 11.75V14Z" fill="#98A2B3"/>
</svg>
