<svg width="20" height="20" viewBox="0 0 20 20" fill="none" xmlns="http://www.w3.org/2000/svg">
<path d="M10 7.394C9.53403 7.394 9.07852 7.53218 8.69108 7.79106C8.30363 8.04994 8.00166 8.4179 7.82334 8.8484C7.64502 9.2789 7.59836 9.75261 7.68927 10.2096C7.78018 10.6667 8.00456 11.0865 8.33406 11.4159C8.66355 11.7454 9.08335 11.9698 9.54037 12.0607C9.99739 12.1516 10.4711 12.105 10.9016 11.9267C11.3321 11.7483 11.7001 11.4464 11.9589 11.0589C12.2178 10.6715 12.356 10.216 12.356 9.75C12.356 9.44061 12.2951 9.13424 12.1767 8.8484C12.0583 8.56255 11.8847 8.30283 11.6659 8.08406C11.4472 7.86528 11.1874 7.69174 10.9016 7.57334C10.6158 7.45494 10.3094 7.394 10 7.394ZM19.4335 5.0665C19.4285 4.33287 19.2934 3.60594 19.0345 2.9195C18.8438 2.4172 18.5488 1.96104 18.1689 1.58113C17.789 1.20121 17.3328 0.906182 16.8305 0.7155C16.1441 0.456591 15.4171 0.321498 14.6835 0.3165C13.458 0.25 13.097 0.25 10 0.25C6.903 0.25 6.542 0.25 5.3165 0.3165C4.58287 0.321498 3.85594 0.456591 3.1695 0.7155C2.6672 0.906182 2.21104 1.20121 1.83113 1.58113C1.45121 1.96104 1.15618 2.4172 0.9655 2.9195C0.706591 3.60594 0.571498 4.33287 0.5665 5.0665C0.5 6.292 0.5 6.653 0.5 9.75C0.5 12.847 0.5 13.208 0.5665 14.4335C0.576726 15.1697 0.711636 15.8989 0.9655 16.59C1.15534 17.09 1.45012 17.5435 1.83 17.92C2.20828 18.3022 2.66542 18.5972 3.1695 18.7845C3.85594 19.0434 4.58287 19.1785 5.3165 19.1835C6.542 19.25 6.903 19.25 10 19.25C13.097 19.25 13.458 19.25 14.6835 19.1835C15.4171 19.1785 16.1441 19.0434 16.8305 18.7845C17.3346 18.5972 17.7917 18.3022 18.17 17.92C18.5499 17.5435 18.8447 17.09 19.0345 16.59C19.2932 15.9002 19.4282 15.1702 19.4335 14.4335C19.5 13.208 19.5 12.847 19.5 9.75C19.5 6.653 19.5 6.292 19.4335 5.0665ZM17.0205 12.6665C16.99 13.2527 16.8649 13.8302 16.65 14.3765C16.4656 14.8322 16.1914 15.2462 15.8438 15.5938C15.4962 15.9414 15.0822 16.2156 14.6265 16.4C14.075 16.6029 13.4944 16.7152 12.907 16.7325C12.1565 16.7325 11.957 16.7325 10 16.7325C8.043 16.7325 7.8435 16.7325 7.093 16.7325C6.50564 16.7152 5.92496 16.6029 5.3735 16.4C4.9024 16.2249 4.47696 15.9456 4.129 15.583C3.78478 15.2422 3.51895 14.8305 3.35 14.3765C3.14628 13.8256 3.03708 13.2443 3.027 12.657C3.027 11.9065 3.027 11.707 3.027 9.75C3.027 7.793 3.027 7.5935 3.027 6.843C3.03708 6.25573 3.14628 5.67439 3.35 5.1235C3.52507 4.6524 3.80436 4.22696 4.167 3.879C4.50932 3.53664 4.9206 3.27109 5.3735 3.1C5.92496 2.89709 6.50564 2.7848 7.093 2.7675C7.8435 2.7675 8.043 2.7675 10 2.7675C11.957 2.7675 12.1565 2.7675 12.907 2.7675C13.4944 2.7848 14.075 2.89709 14.6265 3.1C15.0976 3.27507 15.523 3.55436 15.871 3.917C16.2152 4.25781 16.481 4.66953 16.65 5.1235C16.8529 5.67496 16.9652 6.25564 16.9825 6.843C16.9825 7.5935 16.9825 7.793 16.9825 9.75C16.9825 11.707 17.049 11.9065 17.0205 12.657V12.6665ZM15.5005 5.5985C15.3874 5.29164 15.2091 5.01296 14.9778 4.7817C14.7465 4.55045 14.4679 4.37211 14.161 4.259C13.7396 4.11295 13.2959 4.0422 12.85 4.05C12.109 4.05 11.9 4.05 10 4.05C8.1 4.05 7.891 4.05 7.15 4.05C6.70185 4.05438 6.25802 4.138 5.839 4.297C5.53683 4.40497 5.26111 4.57603 5.03015 4.79879C4.7992 5.02155 4.61831 5.29093 4.4995 5.589C4.36154 6.0121 4.29414 6.45502 4.3 6.9C4.3 7.641 4.3 7.85 4.3 9.75C4.3 11.65 4.3 11.859 4.3 12.6C4.30942 13.0476 4.39288 13.4906 4.547 13.911C4.66011 14.2179 4.83845 14.4965 5.0697 14.7278C5.30096 14.9591 5.57964 15.1374 5.8865 15.2505C6.29183 15.3996 6.71837 15.483 7.15 15.4975C7.891 15.4975 8.1 15.4975 10 15.4975C11.9 15.4975 12.109 15.4975 12.85 15.4975C13.2981 15.4931 13.742 15.4095 14.161 15.2505C14.4679 15.1374 14.7465 14.9591 14.9778 14.7278C15.2091 14.4965 15.3874 14.2179 15.5005 13.911C15.6595 13.492 15.7431 13.0481 15.7475 12.6C15.7475 11.859 15.7475 11.65 15.7475 9.75C15.7475 7.85 15.7475 7.641 15.7475 6.9C15.7478 6.45141 15.664 6.00674 15.5005 5.589V5.5985ZM10 13.379C9.52388 13.379 9.05244 13.2851 8.61268 13.1026C8.17292 12.9201 7.77349 12.6526 7.43726 12.3155C7.10104 11.9784 6.83462 11.5783 6.65329 11.138C6.47195 10.6978 6.37925 10.2261 6.3805 9.75C6.3805 9.03185 6.59358 8.32984 6.99276 7.73285C7.39194 7.13586 7.95928 6.67073 8.62294 6.39634C9.28661 6.12195 10.0168 6.05064 10.721 6.19144C11.4252 6.33224 12.0718 6.67881 12.579 7.18729C13.0861 7.69576 13.431 8.34328 13.5699 9.04786C13.7089 9.75244 13.6357 10.4824 13.3595 11.1454C13.0834 11.8083 12.6168 12.3744 12.0187 12.772C11.4207 13.1696 10.7182 13.3809 10 13.379ZM13.8 6.8335C13.59 6.81127 13.3956 6.71211 13.2544 6.55512C13.1132 6.39813 13.035 6.19443 13.035 5.98325C13.035 5.77207 13.1132 5.56837 13.2544 5.41138C13.3956 5.25439 13.59 5.15523 13.8 5.133C14.01 5.15523 14.2044 5.25439 14.3456 5.41138C14.4868 5.56837 14.565 5.77207 14.565 5.98325C14.565 6.19443 14.4868 6.39813 14.3456 6.55512C14.2044 6.71211 14.01 6.81127 13.8 6.8335Z" fill="#FCFCFD"/>
</svg>
