<svg width="71" height="70" viewBox="0 0 71 70" fill="none" xmlns="http://www.w3.org/2000/svg">
<g clip-path="url(#clip0_2418_11566)">
<path d="M50.375 0H20.625C9.46875 0 0.5 8.96875 0.5 20.125V49.875C0.5 61.0312 9.46875 70 20.625 70H50.375C61.5312 70 70.5 61.0312 70.5 49.875V20.125C70.5 8.96875 61.5312 0 50.375 0Z" fill="#1570EF"/>
<path opacity="0.2" d="M70.5 20.125V23.2969C70.5 12.1406 61.5312 3.17188 50.375 3.17188H20.625C9.46875 3.17188 0.5 12.1406 0.5 23.2969V20.125C0.5 8.96875 9.46875 0 20.625 0H50.375C61.5312 0 70.5 8.96875 70.5 20.125Z" fill="white"/>
<path opacity="0.05" d="M0.5 49.875V46.7031C0.5 57.8594 9.46875 66.8281 20.625 66.8281H50.375C61.5312 66.8281 70.5 57.8594 70.5 46.7031V49.875C70.5 61.0312 61.5312 70 50.375 70H20.625C9.46875 70 0.5 61.0312 0.5 49.875Z" fill="#101828"/>
<path d="M35.4733 56.4947C47.3218 56.4947 56.927 46.8871 56.927 35.0354C56.927 23.1838 47.3218 13.5762 35.4733 13.5762C23.6247 13.5762 14.0195 23.1838 14.0195 35.0354C14.0195 46.8871 23.6247 56.4947 35.4733 56.4947Z" fill="white"/>
<path d="M35.4733 56.8761C23.4396 56.8761 13.584 47.0724 13.584 34.9812C13.584 22.8899 23.4396 13.1406 35.4733 13.1406C47.507 13.1406 57.3627 22.9444 57.3627 35.0356C57.3627 47.1269 47.5615 56.8761 35.4733 56.8761ZM35.4733 13.9576C23.8752 13.9576 14.4008 23.3801 14.4008 35.0356C14.4008 46.6912 23.8208 56.1136 35.4733 56.1136C47.1259 56.1136 56.5459 46.6912 56.5459 35.0356C56.5459 23.3801 47.0714 13.9576 35.4733 13.9576Z" fill="white"/>
<path d="M51.3188 30.2968C49.903 33.5647 51.9722 37.4317 51.1554 40.9175C50.9921 41.68 50.6109 41.7889 50.0119 41.571C45.0024 39.5558 48.5962 35.3075 46.9627 32.6932C45.7647 30.7869 42.4432 30.8414 41.6809 28.7173C41.4087 28.0637 41.4631 27.7914 41.5176 22.127C39.5573 21.0921 37.706 21.7457 36.5625 18.968C35.8546 17.2796 35.5279 15.3733 35.5824 13.5215C46.2548 13.5215 55.0759 21.31 56.7639 31.495L56.7094 31.5494C54.967 30.7869 53.1156 30.3512 51.3188 30.2968ZM51.9722 48.7604C48.7596 52.6275 44.2401 55.2963 39.0673 56.1677C36.5625 52.6819 39.0673 50.231 41.2998 49.3596C43.859 48.3792 47.0716 48.8149 47.9972 48.1069C48.7596 47.5077 49.1407 45.4381 45.9825 44.5666C44.2946 44.1309 39.4484 43.913 39.1217 40.6451C38.9039 38.4121 41.4087 36.887 43.26 38.1942L43.5323 38.0308C43.7501 40.5362 49.413 43.4773 51.9722 48.7604ZM32.8054 21.6368C31.9342 22.7806 27.9048 24.9592 26.2168 25.5583C24.4744 26.1574 22.4052 26.5931 21.534 28.2271C20.7717 29.6432 21.3162 31.3861 21.0984 32.9655C20.8806 34.654 19.6282 36.179 17.9947 36.5058C16.6334 36.7781 15.3266 36.179 14.0742 35.5254V35.0352C14.0742 24.5779 21.5885 15.8635 31.4986 13.9572C31.3897 16.1903 31.2808 17.0073 31.4986 17.5519C31.8253 18.3689 32.8598 18.7501 33.241 19.5671C33.4588 20.2207 33.241 21.0377 32.8054 21.6368ZM28.286 38.3576C28.2315 37.1594 28.2315 35.9611 28.6127 34.8718C29.3205 32.9111 31.6075 31.8762 32.3698 33.4557C33.2954 35.362 32.6965 37.8129 31.0085 39.1201C30.5184 39.5014 29.9195 39.8282 29.7561 40.3728C29.4839 41.1898 30.2462 42.0068 31.063 42.2791C31.8797 42.5514 32.7509 42.4969 33.6222 42.7148C34.33 42.8782 34.9834 43.2595 35.3646 43.8586C35.7457 44.4577 35.8002 45.2747 35.419 45.8738C35.0923 46.364 34.6023 46.6363 34.0578 46.8542C31.8253 47.889 29.375 48.4881 26.9247 48.597C24.3655 48.7604 24.2566 48.2158 19.9549 44.3488C17.4502 43.7496 16.4701 40.9719 17.0146 40.3183C17.2868 39.9916 19.0293 39.8826 19.9549 40.4273C20.6083 40.8085 20.9895 41.7344 20.5539 42.388C19.9549 41.7889 19.7371 40.9175 20.0094 40.1005C20.8806 37.5406 23.3854 39.7737 23.0586 36.6692C22.7319 33.7281 24.5833 34.7084 25.6178 34.4361C26.1624 34.2727 27.1969 33.5102 27.5236 35.1986C27.7414 36.2879 27.7959 37.3772 27.687 38.4665C27.9048 38.4121 28.1226 38.4121 28.3949 38.3576" fill="#2E90FA"/>
<path d="M46.7473 21.5826C46.0394 20.8201 45.0049 20.4933 44.7871 20.5478C44.6237 20.6023 44.5693 20.8746 44.5693 21.038C44.5693 21.3103 44.5148 22.2907 44.6782 22.5086C45.0593 23.1621 46.475 22.5086 46.3117 24.197C46.2572 25.1229 46.0394 25.5586 47.2374 26.43C49.9055 28.3363 51.3212 26.8113 50.8856 24.9595C50.8311 24.6327 50.8311 24.4693 51.1578 24.3604C51.539 24.197 52.0291 24.197 52.4647 24.3059C52.5736 22.9987 47.3463 21.4737 46.0394 21.2014" fill="white"/>
<path d="M32.9169 56.3313C31.2289 56.3313 25.8927 55.0786 21.4277 51.266C22.5168 50.5035 23.9325 49.6865 25.2393 49.7955C26.9273 49.9589 28.1797 51.6473 28.343 53.3902C29.8132 53.1723 31.2834 50.9937 32.808 51.8651C34.4415 52.791 33.1347 55.4598 32.9169 56.3313Z" fill="#2E90FA"/>
<path d="M35.4753 56.8761C23.4416 56.8761 13.5859 47.0724 13.5859 34.9812C13.5859 22.8899 23.4416 13.1406 35.4753 13.1406C47.509 13.1406 57.3646 22.9444 57.3646 35.0356C57.3646 47.1269 47.5634 56.8761 35.4753 56.8761ZM35.4753 13.9576C23.8772 13.9576 14.4027 23.3801 14.4027 35.0356C14.4027 46.6912 23.8227 56.1136 35.4753 56.1136C47.1278 56.1136 56.5478 46.6912 56.5478 35.0356C56.5478 23.3801 47.0734 13.9576 35.4753 13.9576Z" fill="white"/>
<path d="M56.2747 59C50.7207 59 39.177 50.6668 29.4847 40.972C23.3862 34.8719 18.2134 28.4995 14.9463 23.053C12.5505 19.1315 10.2091 13.9573 12.3326 11.8331C14.8918 9.27328 21.6982 13.1948 25.5643 15.7546C25.7276 15.8636 25.7821 16.1359 25.6732 16.2993C25.5643 16.4627 25.292 16.5172 25.1287 16.4082C19.0301 12.3778 14.4562 10.8528 12.9316 12.3778C11.5703 13.7394 12.6049 17.4431 15.6542 22.6172C18.8668 28.0093 24.0396 34.2728 30.0837 40.3729C43.5876 53.8802 55.4579 60.1982 58.0715 57.5839C59.5962 56.0589 58.126 51.4838 54.0966 45.3837C53.9877 45.2203 54.0422 44.948 54.2055 44.839C54.3689 44.7301 54.6411 44.7846 54.75 44.948C57.3092 48.815 61.1753 55.6231 58.6161 58.183C58.0715 58.7276 57.2548 59 56.2747 59Z" fill="white"/>
<path d="M14.6743 59.0002C13.6942 59.0002 12.8774 58.7279 12.3329 58.1832C9.77373 55.6234 13.6942 48.8152 16.2534 44.9482C16.3623 44.7848 16.6346 44.7303 16.7979 44.8393C16.9613 44.9482 17.0157 45.2205 16.9068 45.3839C12.8774 51.484 11.3528 56.0591 12.8774 57.5841C15.4911 60.1984 27.3614 53.8805 40.8653 40.3731C54.3692 26.8658 60.6855 14.9924 58.0718 12.378C56.5472 10.853 51.9733 12.3236 45.8748 16.4085C45.7114 16.5174 45.4392 16.4629 45.3303 16.2995C45.2214 16.1361 45.2758 15.8638 45.4392 15.7549C49.3052 13.195 56.1661 9.32798 58.6708 11.8334C62.4279 15.5915 52.8445 29.589 41.4643 40.9722C31.772 50.667 20.2283 59.0002 14.6743 59.0002Z" fill="white"/>
</g>
<defs>
<clipPath id="clip0_2418_11566">
<rect width="70" height="70" fill="white" transform="translate(0.5)"/>
</clipPath>
</defs>
</svg>
