<svg width="71" height="70" viewBox="0 0 71 70" fill="none" xmlns="http://www.w3.org/2000/svg">
<g clip-path="url(#clip0_2418_11587)">
<path d="M50.375 0H20.625C9.46875 0 0.5 8.96875 0.5 20.125V49.875C0.5 61.0312 9.46875 70 20.625 70H50.375C61.5312 70 70.5 61.0312 70.5 49.875V20.125C70.5 8.96875 61.5312 0 50.375 0Z" fill="#FF5999"/>
<path opacity="0.2" d="M70.5 20.125V23.2969C70.5 12.1406 61.5312 3.17188 50.375 3.17188H20.625C9.46875 3.17188 0.5 12.1406 0.5 23.2969V20.125C0.5 8.96875 9.46875 0 20.625 0H50.375C61.5312 0 70.5 8.96875 70.5 20.125Z" fill="white"/>
<path opacity="0.05" d="M0.5 49.875V46.7031C0.5 57.8594 9.46875 66.8281 20.625 66.8281H50.375C61.5312 66.8281 70.5 57.8594 70.5 46.7031V49.875C70.5 61.0312 61.5312 70 50.375 70H20.625C9.46875 70 0.5 61.0312 0.5 49.875Z" fill="#101828"/>
<g clip-path="url(#clip1_2418_11587)">
<path d="M42 44H28C26.8 44 26 43.2 26 42V34C26 31.8 27.8 30 30 30H40C42.2 30 44 31.8 44 34V42C44 43.2 43.2 44 42 44Z" fill="#FFBAD5"/>
<path d="M40 30H37C39.2 30 41 31.8 41 34V41C41 42.6 39.6 44 38 44H42C43.2 44 44 43.2 44 42V34C44 31.8 42.2 30 40 30Z" fill="#FF75AA"/>
<path d="M35 40C36.6569 40 38 38.6569 38 37C38 35.3431 36.6569 34 35 34C33.3431 34 32 35.3431 32 37C32 38.6569 33.3431 40 35 40Z" fill="#FEF6FB"/>
<path d="M54 18.9999C47 18.9999 41 16.3999 35.6 11.1999C35.2 10.7999 34.6 10.7999 34.2 11.1999C29 16.3999 23 18.9999 16 18.9999C15.4 18.9999 15 19.3999 15 19.9999V35.9999C15 45.9999 21.4 54.7999 31 57.7999L34.8 58.9999C34.8 58.9999 35 58.9999 35.2 58.9999C35.4 58.9999 35.4 58.9999 35.6 58.9999L39.4 57.7999C49 54.7999 55.4 45.9999 55.4 35.9999V19.9999C55 19.3999 54.6 18.9999 54 18.9999ZM53 35.9999C53 45.1999 47.2 53.1999 38.4 55.7999L35 56.9999L31.6 55.9999C22.8 53.1999 17 45.1999 17 35.9999V20.9999C23.8 20.5999 29.8 18.1999 35 13.3999C40.2 18.1999 46.2 20.5999 53 20.9999V35.9999Z" fill="white"/>
<path d="M29 27V29.2C26.8 29.6 25 31.6 25 34V42C25 43.6 26.4 45 28 45H42C43.6 45 45 43.6 45 42V34C45 31.6 43.2 29.6 41 29.2V27C41 23.6 38.4 21 35 21C31.6 21 29 23.6 29 27ZM43 34V42C43 42.6 42.6 43 42 43H28C27.4 43 27 42.6 27 42V34C27 32.4 28.4 31 30 31H40C41.6 31 43 32.4 43 34ZM39 27V29H31V27C31 24.8 32.8 23 35 23C37.2 23 39 24.8 39 27Z" fill="white"/>
<path d="M35 33C32.8 33 31 34.8 31 37C31 39.2 32.8 41 35 41C37.2 41 39 39.2 39 37C39 34.8 37.2 33 35 33ZM35 39C33.8 39 33 38.2 33 37C33 35.8 33.8 35 35 35C36.2 35 37 35.8 37 37C37 38.2 36.2 39 35 39Z" fill="#344054"/>
</g>
</g>
<defs>
<clipPath id="clip0_2418_11587">
<rect width="70" height="70" fill="white" transform="translate(0.5)"/>
</clipPath>
<clipPath id="clip1_2418_11587">
<rect width="48" height="48" fill="white" transform="translate(11 11)"/>
</clipPath>
</defs>
</svg>
