<svg width="71" height="70" viewBox="0 0 71 70" fill="none" xmlns="http://www.w3.org/2000/svg">
<g clip-path="url(#clip0_2418_11539)">
<path d="M50.375 0H20.625C9.46875 0 0.5 8.96875 0.5 20.125V49.875C0.5 61.0312 9.46875 70 20.625 70H50.375C61.5312 70 70.5 61.0312 70.5 49.875V20.125C70.5 8.96875 61.5312 0 50.375 0Z" fill="#917BFF"/>
<path opacity="0.2" d="M70.5 20.125V23.2969C70.5 12.1406 61.5312 3.17188 50.375 3.17188H20.625C9.46875 3.17188 0.5 12.1406 0.5 23.2969V20.125C0.5 8.96875 9.46875 0 20.625 0H50.375C61.5312 0 70.5 8.96875 70.5 20.125Z" fill="white"/>
<path opacity="0.05" d="M0.5 49.875V46.7031C0.5 57.8594 9.46875 66.8281 20.625 66.8281H50.375C61.5312 66.8281 70.5 57.8594 70.5 46.7031V49.875C70.5 61.0312 61.5312 70 50.375 70H20.625C9.46875 70 0.5 61.0312 0.5 49.875Z" fill="#101828"/>
<path d="M45.9476 37.5357C45.7192 38.5578 45.2624 39.5799 44.6914 40.4885L46.8612 43.2141L43.7778 46.2804L41.037 44.1226C40.1234 44.6904 39.0956 45.1447 38.0678 45.3718L37.611 48.7789H33.2714L32.8146 45.2583C31.7868 45.0311 30.759 44.5769 29.8454 44.009L27.1046 46.1668L24.0211 43.1005L26.1909 40.3749C25.6199 39.4663 25.1631 38.4442 24.9347 37.4221L21.3945 36.9679V32.6523L24.9347 32.198C25.1631 31.1759 25.6199 30.1538 26.1909 29.2453L24.0211 26.5197L27.1046 23.4534L29.8454 25.6111C30.759 25.0433 31.7868 24.589 32.8146 24.3619L33.2714 20.8413H37.611L38.0678 24.3619C39.0956 24.589 40.1234 25.0433 41.037 25.6111L43.7778 23.4534L46.8612 26.5197L44.6914 29.586C45.2624 30.4945 45.7192 31.5166 45.9476 32.5387L49.4878 32.993V37.3086L45.9476 37.5357Z" fill="white"/>
<path d="M35.5579 42.1923C39.5314 42.1923 42.7525 38.989 42.7525 35.0376C42.7525 31.0861 39.5314 27.8828 35.5579 27.8828C31.5844 27.8828 28.3633 31.0861 28.3633 35.0376C28.3633 38.989 31.5844 42.1923 35.5579 42.1923Z" fill="#7B61FF"/>
<path d="M35.5572 39.6934C38.1431 39.6934 40.2394 37.6087 40.2394 35.0371C40.2394 32.4655 38.1431 30.3809 35.5572 30.3809C32.9713 30.3809 30.875 32.4655 30.875 35.0371C30.875 37.6087 32.9713 39.6934 35.5572 39.6934Z" fill="#344054"/>
<path d="M39.0966 17.5479C38.9824 17.5479 38.8682 17.5479 38.754 17.4344L35.0996 14.7088C34.9854 14.5952 34.8712 14.4816 34.8712 14.2545C34.8712 14.1409 34.9854 13.9138 35.0996 13.8002L38.754 11.0746C38.9824 10.961 39.325 10.961 39.4392 11.1882C39.5534 11.4153 39.5534 11.756 39.325 11.8696L36.2416 14.1409L39.325 16.4123C39.5534 16.5258 39.5534 16.8665 39.4392 17.0937C39.4392 17.4344 39.2108 17.5479 39.0966 17.5479ZM32.0162 58.8864C31.902 58.8864 31.6736 58.7729 31.5594 58.6593C31.4452 58.4322 31.4452 58.0915 31.6736 57.9779L34.757 55.7066L31.6736 53.4352C31.4452 53.3216 31.4452 52.9809 31.5594 52.7538C31.6736 52.5267 32.0162 52.5267 32.2446 52.6402L35.899 55.3658C36.0132 55.4794 36.1274 55.593 36.1274 55.8201C36.1274 55.9337 36.0132 56.1608 35.899 56.2744L32.2446 59C32.2446 58.8864 32.1304 58.8864 32.0162 58.8864Z" fill="white"/>
<path d="M50.0582 20.9549C49.944 20.9549 49.8298 20.9549 49.7156 20.8414C45.8327 16.9801 40.8079 14.9359 35.4405 14.9359C35.2121 14.9359 34.9837 14.7087 34.9837 14.4816C34.9837 14.2545 35.2121 14.0273 35.4405 14.0273C41.1505 14.0273 46.5179 16.1851 50.515 20.2735C50.7434 20.5007 50.7434 20.8414 50.515 20.9549C50.4008 20.8414 50.2866 20.9549 50.0582 20.9549ZM35.4405 56.1608C29.7305 56.1608 24.3631 54.003 20.366 49.9146C20.1376 49.6875 20.1376 49.3468 20.366 49.2332C20.5944 49.0061 20.937 49.0061 21.0512 49.2332C24.9341 53.0945 29.9589 55.1387 35.4405 55.1387C35.6689 55.1387 35.8973 55.3658 35.8973 55.593C35.8973 55.9337 35.6689 56.1608 35.4405 56.1608ZM55.654 30.6082C55.4256 30.6082 55.1972 30.4946 55.1972 30.2675C54.9688 29.3589 54.6262 28.3368 54.2836 27.4283C54.1694 27.2011 54.2836 26.8604 54.512 26.7469C54.7404 26.6333 55.083 26.7469 55.1972 26.974C55.5398 27.8826 55.8824 28.9047 56.1108 29.9268C56.225 30.1539 55.9966 30.4946 55.654 30.6082ZM53.2558 25.0434C53.0274 25.0434 52.9132 24.9298 52.799 24.8162C52.3422 24.0213 51.7712 23.1127 51.086 22.4313C50.8576 22.2042 50.9718 21.8635 51.2002 21.7499C51.4286 21.5228 51.7712 21.6364 51.8854 21.8635C52.5706 22.6585 53.1416 23.567 53.7126 24.4755C53.8268 24.7027 53.8268 25.0434 53.4842 25.1569C53.4842 25.0434 53.37 25.0434 53.2558 25.0434ZM39.5517 55.8201C39.3233 55.8201 39.0949 55.7065 39.0949 55.3658C39.0949 55.1387 39.2091 54.798 39.4375 54.798C40.4653 54.5709 41.3789 54.3437 42.2925 54.003C42.5209 53.8895 42.8635 54.003 42.9777 54.3437C43.0919 54.5709 42.9777 54.9116 42.6351 55.0251C41.7215 55.2523 40.6937 55.593 39.5517 55.8201C39.6659 55.8201 39.6659 55.8201 39.5517 55.8201ZM45.3759 53.6623C45.1475 53.6623 45.0333 53.5488 44.9191 53.4352C44.8049 53.2081 44.9191 52.8674 45.1475 52.7538C46.0611 52.2995 46.8605 51.7317 47.6599 51.1639C47.8883 51.0503 48.2309 51.0503 48.3451 51.2774C48.4593 51.5046 48.4593 51.8453 48.2309 51.9588C47.4315 52.6402 46.5179 53.0945 45.6043 53.6623C45.4901 53.6623 45.3759 53.6623 45.3759 53.6623ZM50.0582 50.1417C49.944 50.1417 49.8298 50.1417 49.7156 50.0282C49.4872 49.801 49.4872 49.4603 49.7156 49.3468C53.5984 45.4855 55.654 40.4885 55.654 35.0373C55.654 34.8102 55.8824 34.583 56.1108 34.583C56.3392 34.583 56.5676 34.8102 56.5676 35.0373C56.5676 40.7157 54.3978 46.0533 50.2866 50.0282C50.4008 50.1417 50.2866 50.1417 50.0582 50.1417ZM18.7672 47.984C18.653 47.984 18.4246 47.8704 18.3104 47.7568C17.7394 46.9619 17.1684 46.0533 16.5974 45.1448C16.4832 44.9177 16.5974 44.5769 16.8258 44.4634C17.0542 44.3498 17.3968 44.4634 17.511 44.6905C17.9678 45.5991 18.5388 46.394 19.1098 47.189C19.224 47.4161 19.224 47.7568 18.9956 47.8704C18.9956 47.984 18.8814 47.984 18.7672 47.984ZM15.9122 42.6463C15.6838 42.6463 15.4554 42.5327 15.4554 42.3056C15.1128 41.2835 14.7702 40.375 14.656 39.3529C14.656 39.1257 14.7702 38.785 14.9986 38.785C15.227 38.6714 15.5696 38.8986 15.5696 39.1257C15.798 40.1478 16.0264 41.0564 16.369 41.9649C16.4832 42.192 16.369 42.5327 16.0264 42.6463H15.9122ZM14.656 35.4916C14.4276 35.4916 14.1992 35.2644 14.1992 35.0373C14.1992 29.3589 16.369 24.0213 20.4802 20.0464C20.7086 19.8193 21.0512 19.8193 21.1654 20.0464C21.3938 20.2735 21.3938 20.6142 21.1654 20.7278C17.2826 24.5891 15.227 29.5861 15.227 35.0373C15.1128 35.2644 14.8844 35.4916 14.656 35.4916ZM22.9927 19.0243C22.8785 19.0243 22.6501 18.9107 22.5358 18.7972C22.4216 18.57 22.4216 18.2293 22.6501 18.1158C23.4495 17.5479 24.3631 16.9801 25.2767 16.4123C25.5051 16.2987 25.8477 16.4123 25.9619 16.6394C26.0761 16.8665 25.9619 17.2072 25.7335 17.3208C24.8199 17.7751 24.0205 18.3429 23.2211 18.9107C23.2211 18.9107 23.1069 19.0243 22.9927 19.0243ZM28.3601 16.0716C28.1317 16.0716 27.9033 15.958 27.9033 15.7309C27.7891 15.5037 27.9033 15.163 28.2459 15.0494C29.2737 14.7087 30.1873 14.368 31.2151 14.2545C31.4435 14.1409 31.7861 14.368 31.7861 14.5952C31.7861 14.8223 31.6719 15.163 31.4435 15.163C30.4157 15.3902 29.5021 15.6173 28.5885 15.958C28.4743 16.0716 28.3601 16.0716 28.3601 16.0716Z" fill="white"/>
<path d="M14.7726 35.7188C14.6584 35.7188 14.43 35.6053 14.3158 35.4917L11.575 31.8576C11.4608 31.6304 11.4608 31.2897 11.6892 31.1762C11.9176 31.0626 12.2602 31.0626 12.3744 31.2897L14.6584 34.356L16.9424 31.2897C17.0566 31.0626 17.3992 31.0626 17.6276 31.1762C17.856 31.2897 17.856 31.6304 17.7418 31.8576L15.001 35.4917C15.1152 35.6053 14.8868 35.7188 14.7726 35.7188ZM53.6008 39.0123C53.4866 39.0123 53.3724 39.0123 53.2582 38.8987C53.0298 38.7852 53.0298 38.4445 53.144 38.2173L55.8848 34.5832C56.1132 34.356 56.57 34.356 56.6842 34.5832L59.425 38.2173C59.5392 38.4445 59.5392 38.7852 59.3108 38.8987C59.0824 39.0123 58.7398 39.0123 58.6256 38.7852L56.3416 35.7188L54.0576 38.7852C53.9434 39.0123 53.8292 39.0123 53.6008 39.0123Z" fill="white"/>
</g>
<defs>
<clipPath id="clip0_2418_11539">
<rect width="70" height="70" fill="white" transform="translate(0.5)"/>
</clipPath>
</defs>
</svg>
