<svg width="24" height="25" viewBox="0 0 24 25" fill="none" xmlns="http://www.w3.org/2000/svg">
<path d="M19.3697 5.39012L13.5097 2.78012C12.6497 2.40012 11.3497 2.40012 10.4897 2.78012L4.62969 5.39012C3.14969 6.05012 2.92969 6.95012 2.92969 7.43012C2.92969 7.91012 3.14969 8.81012 4.62969 9.47012L10.4897 12.0801C10.9197 12.2701 11.4597 12.3701 11.9997 12.3701C12.5397 12.3701 13.0797 12.2701 13.5097 12.0801L19.3697 9.47012C20.8497 8.81012 21.0697 7.91012 21.0697 7.43012C21.0697 6.95012 20.8597 6.05012 19.3697 5.39012Z" fill="#7B61FF"/>
<path opacity="0.4" d="M12.0003 17.54C11.6203 17.54 11.2403 17.46 10.8903 17.31L4.15031 14.31C3.12031 13.85 2.32031 12.62 2.32031 11.49C2.32031 11.08 2.65031 10.75 3.06031 10.75C3.47031 10.75 3.80031 11.08 3.80031 11.49C3.80031 12.03 4.25031 12.73 4.75031 12.95L11.4903 15.95C11.8103 16.09 12.1803 16.09 12.5003 15.95L19.2403 12.95C19.7403 12.73 20.1903 12.04 20.1903 11.49C20.1903 11.08 20.5203 10.75 20.9303 10.75C21.3403 10.75 21.6703 11.08 21.6703 11.49C21.6703 12.61 20.8703 13.85 19.8403 14.31L13.1003 17.31C12.7603 17.46 12.3803 17.54 12.0003 17.54Z" fill="#7B61FF"/>
<path opacity="0.4" d="M12.0003 22.5C11.6203 22.5 11.2403 22.42 10.8903 22.27L4.15031 19.27C3.04031 18.78 2.32031 17.67 2.32031 16.45C2.32031 16.04 2.65031 15.71 3.06031 15.71C3.47031 15.71 3.80031 16.04 3.80031 16.45C3.80031 17.08 4.17031 17.65 4.75031 17.91L11.4903 20.91C11.8103 21.05 12.1803 21.05 12.5003 20.91L19.2403 17.91C19.8103 17.66 20.1903 17.08 20.1903 16.45C20.1903 16.04 20.5203 15.71 20.9303 15.71C21.3403 15.71 21.6703 16.04 21.6703 16.45C21.6703 17.67 20.9503 18.77 19.8403 19.27L13.1003 22.27C12.7603 22.42 12.3803 22.5 12.0003 22.5Z" fill="#7B61FF"/>
</svg>
