<svg width="20" height="21" viewBox="0 0 20 21" fill="none" xmlns="http://www.w3.org/2000/svg">
<path d="M17.9667 9.44997L16.8334 8.1333C16.6167 7.8833 16.4417 7.41663 16.4417 7.0833V5.66663C16.4417 4.7833 15.7167 4.0583 14.8334 4.0583H13.4167C13.0917 4.0583 12.6167 3.8833 12.3667 3.66663L11.0501 2.5333C10.4751 2.04163 9.5334 2.04163 8.95007 2.5333L7.64173 3.67497C7.39173 3.8833 6.91673 4.0583 6.59173 4.0583H5.15006C4.26673 4.0583 3.54173 4.7833 3.54173 5.66663V7.09163C3.54173 7.41663 3.36673 7.8833 3.1584 8.1333L2.0334 9.4583C1.55007 10.0333 1.55007 10.9666 2.0334 11.5416L3.1584 12.8666C3.36673 13.1166 3.54173 13.5833 3.54173 13.9083V15.3333C3.54173 16.2166 4.26673 16.9416 5.15006 16.9416H6.59173C6.91673 16.9416 7.39173 17.1166 7.64173 17.3333L8.9584 18.4666C9.5334 18.9583 10.4751 18.9583 11.0584 18.4666L12.3751 17.3333C12.6251 17.1166 13.0917 16.9416 13.4251 16.9416H14.8417C15.7251 16.9416 16.4501 16.2166 16.4501 15.3333V13.9166C16.4501 13.5916 16.6251 13.1166 16.8417 12.8666L17.9751 11.55C18.4584 10.975 18.4584 10.025 17.9667 9.44997ZM13.9001 10.5L12.9251 13.4666C12.8001 13.9583 12.2751 14.3583 11.7417 14.3583H10.2001C9.9334 14.3583 9.5584 14.2666 9.39173 14.1L8.16673 13.1416C8.14173 13.675 7.90007 13.9 7.3084 13.9H6.9084C6.29173 13.9 6.04173 13.6583 6.04173 13.075V9.09163C6.04173 8.5083 6.29173 8.26663 6.9084 8.26663H7.31673C7.9334 8.26663 8.1834 8.5083 8.1834 9.09163V9.39163L9.80007 6.99163C9.96673 6.7333 10.3917 6.54997 10.7501 6.69163C11.1417 6.82497 11.3917 7.2583 11.3084 7.64163L11.1084 8.94163C11.0917 9.0583 11.1167 9.16663 11.1917 9.24997C11.2584 9.32497 11.3584 9.37497 11.4667 9.37497H13.0917C13.4084 9.37497 13.6751 9.49997 13.8334 9.72497C13.9751 9.94163 14.0001 10.2166 13.9001 10.5Z" fill="#98A2B3"/>
</svg>
