<svg width="20" height="20" viewBox="0 0 20 20" fill="none" xmlns="http://www.w3.org/2000/svg">
<path d="M18.0951 0.192516H1.90493C1.72294 0.189989 1.54223 0.223336 1.37313 0.290655C1.20402 0.357973 1.04984 0.457944 0.919374 0.584857C0.788911 0.71177 0.684726 0.86314 0.612769 1.03032C0.540812 1.1975 0.502493 1.37722 0.5 1.55922V17.9405C0.502493 18.1225 0.540812 18.3022 0.612769 18.4694C0.684726 18.6366 0.788911 18.7879 0.919374 18.9149C1.04984 19.0418 1.20402 19.1417 1.37313 19.2091C1.54223 19.2764 1.72294 19.3097 1.90493 19.3072H18.0951C18.2771 19.3097 18.4578 19.2764 18.6269 19.2091C18.796 19.1417 18.9502 19.0418 19.0806 18.9149C19.2111 18.7879 19.3153 18.6366 19.3872 18.4694C19.4592 18.3022 19.4975 18.1225 19.5 17.9405V1.55922C19.4975 1.37722 19.4592 1.1975 19.3872 1.03032C19.3153 0.86314 19.2111 0.71177 19.0806 0.584857C18.9502 0.457944 18.796 0.357973 18.6269 0.290655C18.4578 0.223336 18.2771 0.189989 18.0951 0.192516ZM6.26308 16.1915H3.39588V7.5899H6.26308V16.1915ZM4.82948 6.38567C4.43405 6.38567 4.05483 6.22859 3.77522 5.94899C3.49561 5.66938 3.33853 5.29015 3.33853 4.89473C3.33853 4.49931 3.49561 4.12008 3.77522 3.84047C4.05483 3.56087 4.43405 3.40378 4.82948 3.40378C5.03945 3.37997 5.25208 3.40078 5.45345 3.46484C5.65482 3.5289 5.84039 3.63478 5.99801 3.77553C6.15563 3.91628 6.28174 4.08874 6.36809 4.28161C6.45443 4.47448 6.49907 4.68341 6.49907 4.89473C6.49907 5.10605 6.45443 5.31498 6.36809 5.50785C6.28174 5.70072 6.15563 5.87318 5.99801 6.01393C5.84039 6.15468 5.65482 6.26056 5.45345 6.32462C5.25208 6.38868 5.03945 6.40949 4.82948 6.38567ZM16.6041 16.1915H13.7369V11.5753C13.7369 10.4189 13.326 9.66384 12.2842 9.66384C11.9618 9.6662 11.6479 9.76733 11.3847 9.9536C11.1215 10.1399 10.9218 10.4023 10.8124 10.7056C10.7376 10.9302 10.7052 11.1668 10.7168 11.4033V16.182H7.8496C7.8496 16.182 7.8496 8.36405 7.8496 7.58034H10.7168V8.79413C10.9773 8.34216 11.3561 7.96982 11.8125 7.71721C12.2689 7.46459 12.7856 7.34127 13.3068 7.36052C15.2183 7.36052 16.6041 8.59342 16.6041 11.2408V16.1915Z" fill="#FCFCFD"/>
</svg>
