<svg width="24" height="25" viewBox="0 0 24 25" fill="none" xmlns="http://www.w3.org/2000/svg">
<path d="M15.4101 19.0899C15.0101 19.0899 14.6801 18.7599 14.6801 18.3599C14.6801 17.9599 15.0101 17.6299 15.4101 17.6299C18.2301 17.6299 20.5301 15.3299 20.5301 12.5099C20.5301 9.68992 18.2301 7.38992 15.4101 7.38992C12.5901 7.38992 10.2901 9.68992 10.2901 12.5099C10.2901 12.9099 9.96008 13.2399 9.56008 13.2399C9.16008 13.2399 8.83008 12.9099 8.83008 12.5099C8.83008 8.87992 11.7801 5.91992 15.4201 5.91992C19.0601 5.91992 22.0001 8.86992 22.0001 12.4999C22.0001 16.1299 19.0501 19.0899 15.4101 19.0899Z" fill="#AA3B66"/>
<path opacity="0.4" d="M22 12.4999C22 16.1399 19.05 19.0899 15.41 19.0899C14.16 19.0899 12.99 18.7399 12 18.1299C13.9 16.9799 15.17 14.8899 15.17 12.4999C15.17 10.1099 13.9 8.01991 12 6.86991C13 6.26991 14.17 5.90991 15.41 5.90991C19.05 5.90991 22 8.85991 22 12.4999Z" fill="#AA3B66"/>
<path d="M8.59 5.90991C8.99 5.90991 9.32 6.23991 9.32 6.63991C9.32 7.03991 8.99 7.36991 8.59 7.36991C5.77 7.36991 3.47 9.66991 3.47 12.4899C3.47 15.3099 5.77 17.6099 8.59 17.6099C11.41 17.6099 13.71 15.3099 13.71 12.4899C13.71 12.0899 14.04 11.7599 14.44 11.7599C14.84 11.7599 15.17 12.0899 15.17 12.4899C15.17 16.1199 12.22 19.0799 8.58 19.0799C4.94 19.0799 2 16.1299 2 12.4999C2 8.86991 4.95 5.90991 8.59 5.90991Z" fill="#AA3B66"/>
<path opacity="0.5" d="M15.17 12.4999C15.17 14.8899 13.9 16.9799 12 18.1299C11 18.7299 9.83 19.0899 8.59 19.0899C4.95 19.0899 2 16.1399 2 12.4999C2 8.85991 4.95 5.90991 8.59 5.90991C9.83 5.90991 11 6.26991 12 6.86991C13.9 8.01991 15.17 10.1099 15.17 12.4999Z" fill="#AA3B66"/>
</svg>
