<svg width="70" height="70" viewBox="0 0 70 70" fill="none" xmlns="http://www.w3.org/2000/svg">
<path opacity="0.4" d="M53.8712 49.0875L55.0087 58.3041C55.3004 60.7249 52.7045 62.4165 50.6337 61.1623L38.4129 53.8999C37.0712 53.8999 35.7587 53.8125 34.4754 53.6375C36.6337 51.1 37.917 47.8915 37.917 44.4207C37.917 36.1374 30.742 29.4292 21.8754 29.4292C18.492 29.4292 15.3712 30.3916 12.7754 32.0833C12.6879 31.3541 12.6587 30.6249 12.6587 29.8666C12.6587 16.5957 24.1795 5.83325 38.4129 5.83325C52.6462 5.83325 64.167 16.5957 64.167 29.8666C64.167 37.7416 60.1129 44.7125 53.8712 49.0875Z" fill="#FCFAFF"/>
<path d="M37.9166 44.421C37.9166 47.8918 36.6333 51.1002 34.4749 53.6377C31.5874 57.1377 27.0083 59.3835 21.8749 59.3835L14.2624 63.9043C12.9791 64.6918 11.3457 63.6127 11.5207 62.1252L12.2499 56.3794C8.34158 53.6669 5.83325 49.321 5.83325 44.421C5.83325 39.2876 8.57493 34.7669 12.7749 32.0835C15.3708 30.3919 18.4916 29.4294 21.8749 29.4294C30.7416 29.4294 37.9166 36.1376 37.9166 44.421Z" fill="#FCFAFF"/>
</svg>