<svg width="20" height="21" viewBox="0 0 20 21" fill="none" xmlns="http://www.w3.org/2000/svg">
<path d="M15.9748 6.03335C15.6165 4.22502 14.2748 3.43335 12.4081 3.43335H5.09147C2.89147 3.43335 1.4248 4.53335 1.4248 7.10002V11.3917C1.4248 13.2417 2.18314 14.325 3.43314 14.7917C3.61647 14.8583 3.81647 14.9167 4.0248 14.95C4.35814 15.025 4.71647 15.0583 5.09147 15.0583H12.4165C14.6165 15.0583 16.0831 13.9583 16.0831 11.3917V7.10002C16.0831 6.70835 16.0498 6.35835 15.9748 6.03335ZM4.60814 10.5C4.60814 10.8417 4.32481 11.125 3.98314 11.125C3.64147 11.125 3.35814 10.8417 3.35814 10.5V8.00002C3.35814 7.65835 3.64147 7.37502 3.98314 7.37502C4.32481 7.37502 4.60814 7.65835 4.60814 8.00002V10.5ZM8.7498 11.45C7.53314 11.45 6.54981 10.4667 6.54981 9.25002C6.54981 8.03335 7.53314 7.05002 8.7498 7.05002C9.96647 7.05002 10.9498 8.03335 10.9498 9.25002C10.9498 10.4667 9.96647 11.45 8.7498 11.45ZM14.1331 10.5C14.1331 10.8417 13.8498 11.125 13.5081 11.125C13.1665 11.125 12.8831 10.8417 12.8831 10.5V8.00002C12.8831 7.65835 13.1665 7.37502 13.5081 7.37502C13.8498 7.37502 14.1331 7.65835 14.1331 8.00002V10.5Z" fill="#98A2B3"/>
<path d="M18.5831 9.60007V13.8917C18.5831 16.4584 17.1165 17.5667 14.9081 17.5667H7.59147C6.96647 17.5667 6.40814 17.4751 5.92481 17.2917C5.53314 17.1501 5.19147 16.9417 4.91647 16.6751C4.76647 16.5334 4.88314 16.3084 5.09147 16.3084H12.4081C15.4915 16.3084 17.3248 14.4751 17.3248 11.4001V7.10007C17.3248 6.90007 17.5498 6.77507 17.6915 6.92507C18.2581 7.52507 18.5831 8.40007 18.5831 9.60007Z" fill="#98A2B3"/>
</svg>
