<svg width="24" height="25" viewBox="0 0 24 25" fill="none" xmlns="http://www.w3.org/2000/svg">
<path opacity="0.4" d="M17 8.25C16.81 8.25 16.62 8.18 16.47 8.03C16.18 7.74 16.18 7.26 16.47 6.97L18.52 4.92C16.76 3.42 14.49 2.5 12 2.5C6.48 2.5 2 6.98 2 12.5C2 18.02 6.48 22.5 12 22.5C17.52 22.5 22 18.02 22 12.5C22 10.01 21.08 7.74 19.58 5.98L17.53 8.03C17.38 8.18 17.19 8.25 17 8.25Z" fill="#1570EF"/>
<path d="M13.75 12.32L12.75 11.97V9.75H12.83C13.34 9.75 13.75 10.2 13.75 10.75C13.75 11.16 14.09 11.5 14.5 11.5C14.91 11.5 15.25 11.16 15.25 10.75C15.25 9.37 14.17 8.25 12.83 8.25H12.75V8C12.75 7.59 12.41 7.25 12 7.25C11.59 7.25 11.25 7.59 11.25 8V8.25H10.95C9.74001 8.25 8.75 9.27 8.75 10.53C8.75 11.99 9.6 12.46 10.25 12.69L11.25 13.04V15.26H11.17C10.66 15.26 10.25 14.81 10.25 14.26C10.25 13.85 9.91 13.51 9.5 13.51C9.09 13.51 8.75 13.85 8.75 14.26C8.75 15.64 9.83001 16.76 11.17 16.76H11.25V17.01C11.25 17.42 11.59 17.76 12 17.76C12.41 17.76 12.75 17.42 12.75 17.01V16.76H13.05C14.26 16.76 15.25 15.74 15.25 14.48C15.25 13.01 14.4 12.54 13.75 12.32ZM10.74 11.26C10.4 11.14 10.25 11.07 10.25 10.52C10.25 10.09 10.57 9.74 10.95 9.74H11.25V11.43L10.74 11.26ZM13.05 15.25H12.75V13.56L13.26 13.74C13.6 13.86 13.75 13.93 13.75 14.48C13.75 14.9 13.43 15.25 13.05 15.25Z" fill="#1570EF"/>
<path d="M22.6902 2.20999C22.6102 2.02999 22.4702 1.88 22.2802 1.8C22.1902 1.76 22.0902 1.73999 21.9902 1.73999H17.9902C17.5802 1.73999 17.2402 2.07999 17.2402 2.48999C17.2402 2.89999 17.5802 3.23999 17.9902 3.23999H20.1802L18.5103 4.91C18.8903 5.24 19.2403 5.58999 19.5703 5.96999L21.2402 4.3V6.49999C21.2402 6.90999 21.5802 7.24999 21.9902 7.24999C22.4002 7.24999 22.7402 6.90999 22.7402 6.49999V2.49999C22.7502 2.39999 22.7302 2.30999 22.6902 2.20999Z" fill="#1570EF"/>
</svg>
