<svg width="20" height="21" viewBox="0 0 20 21" fill="none" xmlns="http://www.w3.org/2000/svg">
<path d="M15.0003 3H5.00033C3.15866 3 1.66699 4.48333 1.66699 6.30833V14.6917C1.66699 16.5167 3.15866 18 5.00033 18H15.0003C16.842 18 18.3337 16.5167 18.3337 14.6917V6.30833C18.3337 4.48333 16.842 3 15.0003 3ZM7.08366 6.475C8.14199 6.475 9.00866 7.34167 9.00866 8.4C9.00866 9.45833 8.14199 10.325 7.08366 10.325C6.02533 10.325 5.15866 9.45833 5.15866 8.4C5.15866 7.34167 6.02533 6.475 7.08366 6.475ZM10.3087 14.3833C10.2337 14.4667 10.117 14.5167 10.0003 14.5167H4.16699C4.05033 14.5167 3.93366 14.4667 3.85866 14.3833C3.78366 14.3 3.74199 14.1833 3.75033 14.0667C3.89199 12.6667 5.00866 11.5583 6.40866 11.425C6.85033 11.3833 7.30866 11.3833 7.75033 11.425C9.15033 11.5583 10.2753 12.6667 10.4087 14.0667C10.4253 14.1833 10.3837 14.3 10.3087 14.3833ZM15.8337 14.4583H14.167C13.8253 14.4583 13.542 14.175 13.542 13.8333C13.542 13.4917 13.8253 13.2083 14.167 13.2083H15.8337C16.1753 13.2083 16.4587 13.4917 16.4587 13.8333C16.4587 14.175 16.1753 14.4583 15.8337 14.4583ZM15.8337 11.125H12.5003C12.1587 11.125 11.8753 10.8417 11.8753 10.5C11.8753 10.1583 12.1587 9.875 12.5003 9.875H15.8337C16.1753 9.875 16.4587 10.1583 16.4587 10.5C16.4587 10.8417 16.1753 11.125 15.8337 11.125ZM15.8337 7.79167H11.667C11.3253 7.79167 11.042 7.50833 11.042 7.16667C11.042 6.825 11.3253 6.54167 11.667 6.54167H15.8337C16.1753 6.54167 16.4587 6.825 16.4587 7.16667C16.4587 7.50833 16.1753 7.79167 15.8337 7.79167Z" fill="#98A2B3"/>
</svg>
