<svg width="20" height="21" viewBox="0 0 20 21" fill="none" xmlns="http://www.w3.org/2000/svg">
<path d="M13.492 2.16675H6.50866C3.47533 2.16675 1.66699 3.97508 1.66699 7.00841V13.9834C1.66699 17.0251 3.47533 18.8334 6.50866 18.8334H13.4837C16.517 18.8334 18.3253 17.0251 18.3253 13.9917V7.00841C18.3337 3.97508 16.5253 2.16675 13.492 2.16675ZM6.39199 5.08341C6.39199 4.74175 6.67533 4.45841 7.01699 4.45841C7.35866 4.45841 7.64199 4.74175 7.64199 5.08341V8.33341C7.64199 8.67508 7.35866 8.95841 7.01699 8.95841C6.67533 8.95841 6.39199 8.67508 6.39199 8.33341V5.08341ZM7.99288 14.1666C7.79197 14.2625 7.64199 14.4533 7.64199 14.6759V15.9167C7.64199 16.2584 7.35866 16.5417 7.01699 16.5417C6.67533 16.5417 6.39199 16.2584 6.39199 15.9167V14.6759C6.39199 14.4533 6.24198 14.2625 6.04117 14.1665C5.27643 13.8007 4.75033 13.0263 4.75033 12.1251C4.75033 10.8751 5.76699 9.85008 7.01699 9.85008C8.26699 9.85008 9.29199 10.8667 9.29199 12.1251C9.29199 13.0264 8.75941 13.8009 7.99288 14.1666ZM13.6087 15.9167C13.6087 16.2584 13.3253 16.5417 12.9837 16.5417C12.642 16.5417 12.3587 16.2584 12.3587 15.9167V12.6667C12.3587 12.3251 12.642 12.0417 12.9837 12.0417C13.3253 12.0417 13.6087 12.3251 13.6087 12.6667V15.9167ZM12.9837 11.1417C11.7337 11.1417 10.7087 10.1251 10.7087 8.86675C10.7087 7.96541 11.2412 7.19088 12.0078 6.82521C12.2087 6.72937 12.3587 6.53855 12.3587 6.31596V5.08341C12.3587 4.74175 12.642 4.45841 12.9837 4.45841C13.3253 4.45841 13.6087 4.74175 13.6087 5.08341V6.32429C13.6087 6.54689 13.7587 6.73766 13.9595 6.83369C14.7242 7.19943 15.2503 7.97387 15.2503 8.87508C15.2503 10.1251 14.2337 11.1417 12.9837 11.1417Z" fill="#98A2B3"/>
</svg>
