<svg width="20" height="21" viewBox="0 0 20 21" fill="none" xmlns="http://www.w3.org/2000/svg">
<path d="M13.492 2.16675H6.50866C3.47533 2.16675 1.66699 3.97508 1.66699 7.00841V13.9834C1.66699 17.0251 3.47533 18.8334 6.50866 18.8334H13.4837C16.517 18.8334 18.3253 17.0251 18.3253 13.9917V7.00841C18.3337 3.97508 16.5253 2.16675 13.492 2.16675ZM6.35866 15.6251C6.35866 15.9667 6.07533 16.2501 5.73366 16.2501C5.39199 16.2501 5.10866 15.9667 5.10866 15.6251V13.9001C5.10866 13.5584 5.39199 13.2751 5.73366 13.2751C6.07533 13.2751 6.35866 13.5584 6.35866 13.9001V15.6251ZM10.6253 15.6251C10.6253 15.9667 10.342 16.2501 10.0003 16.2501C9.65866 16.2501 9.37533 15.9667 9.37533 15.6251V12.1667C9.37533 11.8251 9.65866 11.5417 10.0003 11.5417C10.342 11.5417 10.6253 11.8251 10.6253 12.1667V15.6251ZM14.892 15.6251C14.892 15.9667 14.6087 16.2501 14.267 16.2501C13.9253 16.2501 13.642 15.9667 13.642 15.6251V10.4417C13.642 10.1001 13.9253 9.81675 14.267 9.81675C14.6087 9.81675 14.892 10.1001 14.892 10.4417V15.6251ZM14.892 7.80842C14.892 8.15008 14.6087 8.43342 14.267 8.43342C13.9253 8.43342 13.642 8.15008 13.642 7.80842V7.00008C11.517 9.18341 8.85866 10.7251 5.88366 11.4667C5.83366 11.4834 5.78366 11.4834 5.73366 11.4834C5.45033 11.4834 5.20033 11.2917 5.12533 11.0084C5.04199 10.6751 5.24199 10.3334 5.58366 10.2501C8.39199 9.55008 10.892 8.07508 12.8753 5.99175H11.8337C11.492 5.99175 11.2087 5.70842 11.2087 5.36675C11.2087 5.02508 11.492 4.74175 11.8337 4.74175H14.2753C14.3087 4.74175 14.3337 4.75841 14.367 4.75841C14.4087 4.76675 14.4503 4.76675 14.492 4.78341C14.5337 4.80008 14.567 4.82508 14.6087 4.85008C14.6337 4.86675 14.6587 4.87508 14.6837 4.89175C14.692 4.90008 14.692 4.90841 14.7003 4.90841C14.7337 4.94175 14.7587 4.97508 14.7837 5.00841C14.8087 5.04175 14.8337 5.06675 14.842 5.10008C14.8587 5.13341 14.8587 5.16675 14.867 5.20842C14.8753 5.25008 14.892 5.29175 14.892 5.34175C14.892 5.35008 14.9003 5.35841 14.9003 5.36675V7.80842H14.892Z" fill="#98A2B3"/>
</svg>
