<svg width="24" height="25" viewBox="0 0 24 25" fill="none" xmlns="http://www.w3.org/2000/svg">
<path opacity="0.4" d="M4.16989 15.8L8.69989 20.33C10.5599 22.1901 13.5799 22.1901 15.4499 20.33L19.8399 15.94C21.6999 14.08 21.6999 11.06 19.8399 9.19005L15.2999 4.67005C14.3499 3.72005 13.0399 3.21005 11.6999 3.28005L6.69989 3.52005C4.69989 3.61005 3.10989 5.20005 3.00989 7.19005L2.76989 12.19C2.70989 13.54 3.21989 14.85 4.16989 15.8Z" fill="#7B61FF"/>
<path d="M9.50012 12.8801C11.0907 12.8801 12.3801 11.5907 12.3801 10.0001C12.3801 8.40954 11.0907 7.12012 9.50012 7.12012C7.90954 7.12012 6.62012 8.40954 6.62012 10.0001C6.62012 11.5907 7.90954 12.8801 9.50012 12.8801Z" fill="#7B61FF"/>
</svg>
