<svg width="18" height="15" viewBox="0 0 18 15" fill="none" xmlns="http://www.w3.org/2000/svg">
<path d="M17.3337 6.45825C17.6753 6.45825 17.9587 6.17492 17.9587 5.83325V4.99992C17.9587 1.32492 16.842 0.208252 13.167 0.208252H7.95866V2.08325C7.95866 2.42492 7.67533 2.70825 7.33366 2.70825C6.99199 2.70825 6.70866 2.42492 6.70866 2.08325V0.208252H4.83366C1.15866 0.208252 0.0419922 1.32492 0.0419922 4.99992V5.41658C0.0419922 5.75825 0.325332 6.04158 0.666992 6.04158C1.46699 6.04158 2.12533 6.69992 2.12533 7.4999C2.12533 8.2999 1.46699 8.9583 0.666992 8.9583C0.325332 8.9583 0.0419922 9.2416 0.0419922 9.5833V9.9999C0.0419922 13.6749 1.15866 14.7916 4.83366 14.7916H6.70866V12.9166C6.70866 12.5749 6.99199 12.2916 7.33366 12.2916C7.67533 12.2916 7.95866 12.5749 7.95866 12.9166V14.7916H13.167C16.842 14.7916 17.9587 13.6749 17.9587 9.9999C17.9587 9.6583 17.6753 9.3749 17.3337 9.3749C16.5337 9.3749 15.8753 8.7166 15.8753 7.9166C15.8753 7.1166 16.5337 6.45825 17.3337 6.45825ZM7.95866 9.3083C7.95866 9.6499 7.67533 9.9333 7.33366 9.9333C6.99199 9.9333 6.70866 9.6499 6.70866 9.3083V5.69159C6.70866 5.34992 6.99199 5.06659 7.33366 5.06659C7.67533 5.06659 7.95866 5.34992 7.95866 5.69159V9.3083Z" fill="#98A2B3"/>
</svg>
