<svg width="25" height="20" viewBox="0 0 25 20" fill="none" xmlns="http://www.w3.org/2000/svg">
<path d="M24.5 2.3083C23.5972 2.70205 22.6424 2.96374 21.665 3.0853C22.695 2.47424 23.4651 1.50665 23.8295 0.365801C22.865 0.937806 21.8098 1.34061 20.7095 1.5568C20.0349 0.83647 19.1592 0.335679 18.1962 0.119493C17.2333 -0.0966941 16.2276 -0.0182836 15.3098 0.344537C14.392 0.707358 13.6045 1.33782 13.0496 2.15401C12.4948 2.97019 12.1982 3.93438 12.1985 4.9213C12.1985 5.3113 12.2315 5.6863 12.3125 6.0433C10.3551 5.94733 8.44004 5.43932 6.69245 4.55248C4.94487 3.66563 3.40414 2.41993 2.171 0.896801C1.53923 1.97959 1.34391 3.26246 1.62482 4.48421C1.90574 5.70595 2.64175 6.77469 3.683 7.4728C2.90414 7.45191 2.14171 7.24407 1.46 6.8668V6.9208C1.4613 8.05695 1.854 9.15796 2.57198 10.0385C3.28995 10.919 4.28937 11.5253 5.402 11.7553C4.98108 11.8662 4.54728 11.9207 4.112 11.9173C3.79938 11.9229 3.48708 11.8947 3.1805 11.8333C3.49841 12.8098 4.11124 13.6638 4.93459 14.2776C5.75795 14.8915 6.75134 15.2349 7.778 15.2608C6.03641 16.6229 3.88846 17.3617 1.6775 17.3593C1.274 17.3593 0.887 17.3413 0.5 17.2918C2.74982 18.7416 5.37151 19.5085 8.048 19.4998C17.102 19.4998 22.052 11.9998 22.052 5.4988C22.052 5.2813 22.0445 5.0713 22.034 4.8628C23.0044 4.16828 23.8401 3.30262 24.5 2.3083Z" fill="#FCFCFD"/>
</svg>
