<svg width="25" height="18" viewBox="0 0 25 18" fill="none" xmlns="http://www.w3.org/2000/svg">
<path d="M24.4945 6.26141C24.5484 4.70093 24.2071 3.15212 23.5024 1.7588C23.0242 1.18708 22.3606 0.801268 21.6272 0.668577C18.5937 0.393324 15.5476 0.280506 12.502 0.330608C9.46757 0.278232 6.43246 0.387409 3.4096 0.657675C2.81196 0.766388 2.25889 1.04671 1.81788 1.46444C0.836678 2.36932 0.727656 3.91744 0.618633 5.2257C0.460456 7.57792 0.460456 9.93811 0.618633 12.2903C0.650174 13.0267 0.75981 13.7576 0.9457 14.4708C1.07715 15.0214 1.34311 15.5308 1.71976 15.9535C2.16377 16.3933 2.72972 16.6896 3.34419 16.8038C5.69461 17.094 8.0629 17.2142 10.4306 17.1636C14.2464 17.2181 17.5934 17.1636 21.5509 16.8584C22.1804 16.7511 22.7623 16.4545 23.2189 16.008C23.5241 15.7026 23.7521 15.3289 23.884 14.9178C24.2738 13.7214 24.4653 12.4692 24.4509 11.211C24.4945 10.6005 24.4945 6.91554 24.4945 6.26141ZM10.0381 11.8651V5.11668L16.4923 8.50727C14.6825 9.51027 12.2949 10.6441 10.0381 11.8651Z" fill="#FCFCFD"/>
</svg>
